<?xml version="1.0" encoding="UTF-8"?>
<svg id="Layer_2" data-name="Layer 2" xmlns="http://www.w3.org/2000/svg" viewBox="0 0 131.79 60.1">
  <defs>
    <style>
      .cls-1 {
        fill: #fff;
        fill-rule: evenodd;
      }
    </style>
  </defs>
  <g id="Capa_1" data-name="Capa 1">
    <g>
      <path class="cls-1" d="m106.79,10.12c-13.81,0-24.99,11.2-24.99,25,0,14.93,11.78,24.99,24.28,24.99,4.7,0,10.03-1.86,14.38-6.22l11.33,5.4v-24.18c0-13.8-11.2-24.99-25-24.99h0Zm10.27,28.5h0c-1.47,4.29-5.48,7.39-10.27,7.39-6.01,0-10.89-4.87-10.89-10.89,0-6.02,4.87-10.9,10.88-10.9,6.02,0,10.89,4.88,10.89,10.89,0,1.23-.25,2.39-.62,3.5Z"/>
      <polygon class="cls-1" points="59.39 59.22 74.43 59.21 74.42 9.05 59.38 15.81 59.39 59.22"/>
      <path class="cls-1" d="m22.15,0H0s.01,59.23.01,59.23h22.15c16.36,0,29.62-13.26,29.62-29.62C51.78,13.25,38.51,0,22.15,0h0Zm.56,44.81h0c-.25.01-.51.02-.76.02h-7.74s0-30.43,0-30.43h7.75c.26,0,.51,0,.76.01,8.04.4,14.46,7.05,14.46,15.2,0,8.15-6.41,14.8-14.45,15.2Z"/>
    </g>
  </g>
</svg>