<?xml version="1.0" encoding="UTF-8"?>
<svg id="Layer_2" data-name="Layer 2" xmlns="http://www.w3.org/2000/svg" viewBox="0 0 111.55 111.55">
  <defs>
    <style>
      .cls-1 {
        fill: #fff;
      }
    </style>
  </defs>
  <g id="Capa_1" data-name="Capa 1">
    <g>
      <g>
        <path class="cls-1" d="m46.39,85.79c-.8,0-1.5.26-2.06.79-.52.58-.8,1.19-.8,1.94v3.45h1.2v-3.45c0-.42.15-.81.49-1.02.35-.34.7-.53,1.17-.53s.87.19,1.2.53c.3.21.5.6.5,1.02v3.45h1.22v-3.45c0-.75-.29-1.36-.86-1.94-.56-.53-1.23-.79-2.07-.79Z"/>
        <path class="cls-1" d="m72.48,89.08c0,.48-.1.81-.39,1.1-.37.33-.68.47-1.11.47-.47,0-.89-.14-1.19-.47-.23-.29-.41-.62-.41-1.1v-3.12h-1.32v3.12c0,.81.27,1.51.84,2.08.56.52,1.18.81,2.08.81.74,0,1.46-.28,2.03-.81.58-.57.85-1.27.85-2.08v-3.12h-1.39v3.12Z"/>
        <path class="cls-1" d="m58.56,85.79c-.86,0-1.62.28-2.22.89-.62.64-.95,1.4-.95,2.29,0,.84.33,1.61.95,2.21.6.61,1.36.94,2.22.94s1.59-.33,2.23-.94c.62-.6.94-1.38.94-2.21,0-.89-.32-1.65-.94-2.29-.64-.61-1.36-.89-2.23-.89Zm1.4,4.56c-.43.35-.89.57-1.4.57s-1.04-.22-1.37-.57c-.41-.38-.62-.87-.62-1.38,0-.59.21-1.07.62-1.4.33-.42.86-.61,1.37-.61s.97.19,1.4.61c.37.33.56.81.56,1.4,0,.51-.19,1-.56,1.38Z"/>
        <path class="cls-1" d="m34.45,86.88c.56,0,.99.14,1.42.62.1.08.23.21.29.41l.89-.89c-.06-.07-.23-.28-.37-.39-.58-.66-1.34-.95-2.23-.95s-1.62.31-2.26.95c-.6.59-.91,1.31-.91,2.2,0,.85.27,1.62.91,2.22.64.61,1.39.91,2.26.91s1.65-.3,2.27-.87c.1-.14.27-.3.33-.46l-.86-.88h-.04c0,.21-.12.3-.27.48-.45.39-.86.56-1.44.56-.52,0-.99-.21-1.4-.6-.4-.36-.57-.84-.57-1.37s.18-1,.57-1.33c.41-.49.87-.62,1.4-.62Z"/>
        <path class="cls-1" d="m54.18,90.24c-.43.39-.85.56-1.38.56-.56,0-1.04-.21-1.39-.6-.41-.36-.62-.84-.62-1.37s.21-1,.62-1.33c.35-.49.8-.62,1.39-.62.52,0,.95.14,1.36.62.1.08.21.21.37.41l.85-.89c-.14-.07-.23-.28-.37-.39-.64-.66-1.34-.95-2.21-.95-.92,0-1.62.31-2.22.95-.6.59-.95,1.31-.95,2.2,0,.85.35,1.62.95,2.22.6.61,1.3.91,2.22.91.87,0,1.57-.3,2.21-.87.18-.14.23-.3.37-.46l-.85-.88c-.16.21-.21.3-.35.48Z"/>
        <path class="cls-1" d="m43.19,87.33c-.04-.11-.14-.25-.25-.38-.54-.68-1.21-1.11-2.09-1.23-.82-.1-1.68.08-2.36.58-.72.56-1.09,1.26-1.19,2.09-.16.89.02,1.59.55,2.32.52.7,1.26,1.13,2.07,1.26h.5c.7,0,1.32-.17,1.93-.62.23-.21.47-.47.7-.76l-.18-.14-.52-.56-.2-.13c-.1.21-.33.42-.56.63-.43.31-.93.43-1.51.41-.29-.1-.55-.18-.83-.35l4-2.95-.06-.17Zm-4.66,2.13c-.14-.23-.16-.59-.1-.93.1-.47.35-.94.76-1.28.35-.22.73-.36,1.18-.36.16,0,.19.07.29.07.31,0,.66.07.89.27l-3.02,2.23Z"/>
        <path class="cls-1" d="m67.29,88.95c-.42-.43-.83-.58-1.39-.58h-2c-.18,0-.41-.06-.52-.19-.14-.09-.14-.26-.14-.4,0-.19,0-.25.14-.39.12-.15.35-.22.52-.22h3.23v-1.2h-3.23c-.52,0-1.03.16-1.41.55-.33.21-.51.64-.51,1.06v.33c0,.4.16.65.27.92.1.09.14.15.23.19.38.39.88.53,1.41.53h2c.18,0,.37.12.51.25.08.08.1.17.1.35,0,.19-.02.29-.1.43-.14.1-.33.21-.51.21h-3.45v1.17h3.45c.56,0,.97-.17,1.39-.53.31-.27.47-.63.49-1.08v-.38c0-.3-.14-.56-.27-.78-.06-.12-.16-.19-.21-.25Z"/>
        <path class="cls-1" d="m78.95,85.3v.66h-2.43c-.56.02-1.07.24-1.46.66-.66.59-.91,1.31-.91,2.23,0,.82.25,1.65.91,2.19.54.61,1.28.91,2.15.91s1.51-.3,2.11-.91c.6-.54.91-1.38.91-2.19v-5.3h-1.28v1.75Zm0,3.58v.03c0,.45-.16.89-.52,1.24-.3.35-.75.54-1.21.54-.51,0-.96-.19-1.31-.54-.31-.38-.52-.8-.52-1.3,0-.53.21-1,.52-1.3.21-.32.91-.4,1.43-.4h1.62v1.73Z"/>
        <path class="cls-1" d="m110.1,43.07c-1.38-5.98-3.79-11.63-7.06-16.85.34-.52.63-1.07.86-1.66,0-.02.01-.03.02-.05.1-.26.19-.54.27-.81.01-.04.03-.08.04-.12.08-.32.16-.64.21-.97.95-5.06-2.49-9.95-7.66-10.81-.29-.05-.57-.08-.86-.11-.1,0-.2-.01-.3-.02-.18,0-.36-.01-.54-.01-.13,0-.25,0-.38.01-.14,0-.29.02-.43.03-.15.01-.29.03-.43.05-.07.01-.15.03-.22.04-.64.11-1.26.28-1.85.52-.02,0-.05.02-.07.03-.21.09-.42.18-.63.28h0s0,0,0,0c-1.64-1.34-3.34-2.6-5.13-3.74-6.34-4.1-13.28-6.75-20.68-8.05-7.42-1.27-14.84-1.08-22.11.63-7.04,1.62-13.62,4.58-19.51,8.73-5.93,4.22-10.89,9.39-14.8,15.43-4.01,6.3-6.72,13.21-8.03,20.64-1.28,7.45-1.01,14.87.67,22.13,1.62,7.01,4.54,13.57,8.78,19.52,4.15,5.92,9.32,10.88,15.4,14.78,6.24,4.08,13.2,6.75,20.6,8.05,7.42,1.28,14.91,1.04,22.18-.65,7.02-1.65,13.53-4.58,19.47-8.78,5.93-4.14,10.88-9.34,14.84-15.38,3.98-6.33,6.69-13.28,7.95-20.7,1.28-7.4,1.13-14.88-.6-22.15Zm-15.05-26.86c.16,0,.32,0,.48,0,0,0,0,0,0,0,.16.01.33.03.5.06.16.03.32.06.48.11.06.02.12.04.18.06.09.03.19.06.28.09.07.03.14.06.21.1.07.03.15.06.22.1.08.04.16.09.24.14.05.03.11.06.16.09.09.06.18.12.26.19.04.03.08.05.11.08.1.08.19.16.28.24.02.02.05.04.07.06.1.09.19.19.28.29.01.01.03.03.04.04.09.11.18.22.27.34,0,0,.01.01.02.02.71.99,1.05,2.26.86,3.58,0,.03,0,.05,0,.08-.36,2-1.91,3.48-3.8,3.89h0c-.28.06-.57.1-.86.11,0,0-.01,0-.02,0-.29.01-.58,0-.88-.04-2.63-.51-4.32-2.98-3.91-5.66.04-.24.1-.46.17-.68.62-1.89,2.38-3.21,4.38-3.28h0Zm-6.25-2.04s0,0,0,0c0,0,0,0,0,0Zm16.55,50.16c-4.69,27.36-30.73,45.76-58.12,41.06C19.75,100.63,1.47,74.65,6.15,47.19,10.89,19.8,36.92,1.42,64.35,6.17c8.61,1.48,16.33,5.08,22.72,10.16-.13.23-.25.46-.37.7-.01.02-.02.04-.03.07-.1.22-.2.44-.28.67-.03.09-.06.18-.09.26-.06.18-.12.35-.17.53-.08.28-.14.57-.19.86-.85,5.15,2.55,9.99,7.73,10.87.28.05.56.08.84.1.09,0,.18.01.27.02.19,0,.39.01.58.01.1,0,.19,0,.29,0,.24-.01.48-.03.71-.06.15-.02.3-.04.45-.07.1-.02.19-.03.28-.05.17-.03.34-.07.51-.12.01,0,.03,0,.04-.01.4-.11.8-.24,1.18-.4,0,0,0,0,0,0h0s0,0,0,0c0,0,0,0,0,0,6.06,10.01,8.69,22.17,6.53,34.61Z"/>
      </g>
      <g>
        <path class="cls-1" d="m21.38,46.41c1.23,0,2.27,1.03,2.27,2.23v9.98c0,4-3.36,7.36-7.43,7.36s-7.35-3.36-7.35-7.36v-.09c0-1.17,1.03-2.22,2.21-2.22s2.24.96,2.24,2.22v.09c0,1.55,1.32,2.85,2.89,2.85s2.89-1.29,2.89-2.85v-7.76h-4.81c-1.19,0-2.2-1-2.2-2.22s1.02-2.27,2.2-2.27l7.08.04Z"/>
        <path class="cls-1" d="m38.83,46.41c1.21,0,2.24,1.03,2.24,2.23v9.48c0,4.33-3.56,7.87-7.87,7.87s-7.85-3.54-7.85-7.87v-9.48c0-1.2,1.01-2.23,2.22-2.23s2.25,1.03,2.25,2.23v9.48c0,1.84,1.51,3.35,3.37,3.35s3.36-1.52,3.36-3.35v-9.48c0-1.2,1.04-2.23,2.26-2.23Z"/>
        <path class="cls-1" d="m68.34,65.05c-.51-.52-.7-1.09-.7-1.61v-14.79c0-.52.19-1.12.7-1.56.45-.52,1.03-.67,1.5-.67h6.21c2.87,0,5.83,1.9,5.83,5.2,0,2.45-1.65,3.34-1.94,3.46-.06.06-.12.13-.12.17,0,0,0,.09.06.09,1.01.63,2.53,2.13,2.53,4.89,0,3.13-2.86,5.45-6.05,5.45h-6.52c-.47,0-1.05-.19-1.5-.62Zm3.77-11.21h3.39c.91,0,1.99-.45,1.99-1.65,0-1.05-1.08-1.59-1.99-1.59h-3.39v3.24Zm0,7.63h3.89c1.06,0,1.89-.82,1.89-1.85,0-1.09-.84-1.95-1.89-1.95h-3.89v3.8Z"/>
        <path class="cls-1" d="m93.2,46.05c5.45,0,10.01,4.53,10.01,10.03s-4.56,9.91-10.01,9.91-9.96-4.52-9.96-9.91,4.48-10.03,9.96-10.03Zm5.45,10.03c0-3.07-2.46-5.51-5.45-5.51s-5.49,2.44-5.49,5.51,2.45,5.39,5.49,5.39,5.45-2.43,5.45-5.39Z"/>
        <path class="cls-1" d="m65.65,53.08v10.58c0,1.29-1.05,2.28-2.27,2.28s-2.21-.99-2.21-2.28v-10.58c0-1.22-1.11-2.31-2.33-2.31-1.31,0-2.4,1.09-2.4,2.31v10.58c0,1.29-.97,2.28-2.21,2.28s-2.34-.99-2.34-2.28v-10.58c0-1.22-.97-2.31-2.25-2.31s-2.3,1.09-2.3,2.31v10.58c0,1.29-1.07,2.28-2.29,2.28s-2.21-.99-2.21-2.28v-10.58c0-3.77,3.05-6.85,6.81-6.85,1.86,0,3.47.82,4.59,1.82,1.03-.97,2.66-1.82,4.61-1.82,3.68,0,6.82,3.08,6.82,6.85Z"/>
      </g>
    </g>
  </g>
</svg>