<?xml version="1.0" encoding="utf-8"?>
<!-- Generator: Adobe Illustrator 25.3.1, SVG Export Plug-In . SVG Version: 6.00 Build 0)  -->
<svg version="1.1" id="Layer_1" xmlns="http://www.w3.org/2000/svg" xmlns:xlink="http://www.w3.org/1999/xlink" x="0px" y="0px"
	 viewBox="0 0 326.5 163.8" style="enable-background:new 0 0 326.5 163.8;" xml:space="preserve">
<g>
	<polygon points="131.4,62.9 91.2,62.9 91.2,42.6 120.1,42.6 120.1,31.5 91.2,31.5 91.2,11.1 131.4,11.1 131.4,0 79.3,0 79.3,74.1 
		131.4,74.1 	"/>
	<path d="M130.4,95.1c-3.9-3.8-8.8-5.4-17-5.4h0h-12.3h0c-8.2,0-13.1,1.6-17,5.4c-3.8,3.6-5.2,8.4-5.2,16.8v29.7
		c0,8.4,1.4,13.2,5.2,16.9c3.9,3.8,8.8,5.3,17,5.3h0h12.3h0c8.2,0,13.1-1.6,17-5.3c3.8-3.7,5.2-8.5,5.2-16.9V112
		C135.7,103.5,134.2,98.8,130.4,95.1z M123.8,139.4c0,6.9-0.4,9.2-2.2,11.1c-1.8,1.8-3.8,2.2-11.1,2.2h-6.4c-7.2,0-9.3-0.4-11.1-2.2
		c-1.8-1.9-2.2-4.2-2.2-11.1v-25.2c0-6.9,0.4-9.2,2.2-11.1c1.8-1.7,3.8-2.2,11.1-2.2h6.4c7.2,0,9.3,0.5,11.1,2.2
		c1.8,1.9,2.2,4.2,2.2,11.1V139.4z"/>
	<path d="M192.8,5.4c-3.9-3.8-8.8-5.4-17-5.4h0h-32.5v74.1h32.5h0c8.2,0,13.1-1.6,17-5.3c3.8-3.7,5.2-8.5,5.2-16.9V22.2
		C198,13.8,196.6,9,192.8,5.4z M186.1,49.6c0,6.9-0.4,9.2-2.2,11.1c-1.8,1.8-3.8,2.2-11.1,2.2h-17.7V11.1h17.7
		c7.2,0,9.3,0.5,11.1,2.2c1.8,1.9,2.2,4.2,2.2,11.1V49.6z"/>
	<polygon points="253.9,11.1 253.9,0 207.1,0 207.1,11.1 224.6,11.1 224.6,62.9 207.1,62.9 207.1,74.1 253.9,74.1 253.9,62.9 
		236.4,62.9 236.4,11.1 	"/>
	<path d="M317.5,33.3L303.6,3.3c-0.8-1.9-2.7-3.3-4.9-3.3c-0.1,0-14.7,0-14.8,0c-2.2,0-4.1,1.3-4.9,3.3l-13.9,30.1
		c-0.7,1.6-1.2,3.4-1.2,5.2v35.5h11.9V53.7h31v20.3h11.9V38.5C318.7,36.7,318.2,34.9,317.5,33.3z M306.8,42.6h-31v-4.8l12.6-26.7
		h5.9l12.6,26.7L306.8,42.6L306.8,42.6z"/>
	<polygon points="190.6,126.9 159.6,89.8 147.8,89.8 147.8,163.8 159.6,163.8 159.6,106.4 190.6,143.5 190.6,163.8 202.5,163.8 
		202.5,89.8 190.6,89.8 	"/>
	<path d="M301.5,121.5c-8.4-3.6-17.3-7-17.3-12.9c0-4.1,3.2-7.7,7.2-7.7h16.3c4,0,7.2,3.2,7.2,7.2v1.9h11.7v-1.6
		c0-10.3-8.5-18.7-18.8-18.7h-15.8c-10.4,0-18.8,8.5-18.8,18.8c0,13.3,14,18.8,25,23.5c8.4,3.6,17.3,7,17.3,12.9
		c0,4.1-3.2,7.7-7.2,7.7h-16.3c-4,0-7.2-3.2-7.2-7.2v-1.9h-11.7v1.6c0,10.3,8.5,18.7,18.8,18.7h15.8c10.4,0,18.8-8.5,18.8-18.8
		C326.5,131.7,312.5,126.3,301.5,121.5z"/>
	<polygon points="237.9,126.4 269.5,89.8 253.9,89.8 228.3,121.2 228.3,89.8 216.5,89.8 216.5,163.8 228.3,163.8 228.3,132.4 
		255,163.8 270.9,163.8 	"/>
	<polyline points="54.7,18.8 38.1,42.6 28.5,42.6 11.9,18.8 11.9,74.1 0,74.1 0,0 11.9,0 33.3,30.8 54.7,0 66.6,0 66.6,74.1 
		54.7,74.1 54.7,18.8 	"/>
	<polyline points="54.7,108.5 38.1,132.4 28.5,132.4 11.9,108.5 11.9,163.8 0,163.8 0,89.8 11.9,89.8 33.3,120.5 54.7,89.8 
		66.6,89.8 66.6,163.8 54.7,163.8 54.7,108.5 	"/>
</g>
</svg>
