<?xml version="1.0" encoding="UTF-8"?>
<svg id="Layer_2" data-name="Layer 2" xmlns="http://www.w3.org/2000/svg" viewBox="0 0 389.13 72.71">
  <defs>
    <style>
      .cls-1 {
        fill: #fff;
      }
    </style>
  </defs>
  <g id="Capa_1" data-name="Capa 1">
    <g>
      <path class="cls-1" d="m145.68,72.71c5.32,0,9.86-1.51,13.14-4.37,3.18-2.77,4.93-6.71,4.93-11.1,0-3.65-1.1-6.36-3.45-8.51-2.17-1.99-5.48-3.53-10.42-4.87-4.72-1.27-7.81-2.35-7.81-5.5,0-2.17,1.74-3.52,4.54-3.52,2.53,0,4.14,1.45,4.64,4.19h11.03c-.32-4.51-1.82-7.95-4.47-10.23-2.6-2.23-6.31-3.37-11.02-3.37-5.21,0-9.58,1.44-12.66,4.17-2.99,2.66-4.57,6.36-4.57,10.71,0,6.63,3.68,10.85,11.59,13.3,1.34.41,2.59.73,3.69,1,3.6.89,5.98,1.48,5.98,4.38,0,2.5-1.9,4.05-4.97,4.05s-5.3-1.89-5.3-4.38v-.31h-11.53c.99,9.26,6.9,14.35,16.66,14.35h0Z"/>
      <path class="cls-1" d="m72.39,71.18V2.28h-22.53l-13.6,44.8s-.06.08-.11.08-.09-.03-.11-.08L22.44,2.28H0v68.91h14.53V24.85c0-.06.04-.1.09-.11.06,0,.11.03.12.08l14.07,46.37h14.63l14.16-46.66c.02-.05.07-.09.12-.08s.09.06.09.11v46.63h14.55Z"/>
      <path class="cls-1" d="m100.54,71.54c4.24,0,8.37-1.19,11.95-3.44.03-.02.08-.02.12,0,.03.02.06.06.06.1l.02,2.95h11.71V26.89h-12.1l.02,2.84s-.02.08-.06.1-.08.02-.12,0c-3.49-2.11-7.5-3.22-11.6-3.22-12.39,0-22.47,10.08-22.47,22.47s10.08,22.47,22.47,22.47h0Zm.86-32.69c5.82,0,10.54,4.73,10.54,10.54s-4.73,10.55-10.54,10.55-10.54-4.73-10.54-10.55,4.73-10.54,10.54-10.54h0Z"/>
      <path class="cls-1" d="m88.74,22.85l-6.09-6.09,14.9-14.9c2.48-2.48,6.52-2.48,9,0l14.9,14.9-6.09,6.09-13.32-13.32-13.32,13.32h0Z"/>
      <g>
        <path class="cls-1" d="m199.3,14.65c-16.03,0-29.03,13-29.03,29.03s13,29.03,29.03,29.03,29.03-13,29.03-29.03-13-29.03-29.03-29.03h0Zm0,46.16c-9.46,0-17.14-7.67-17.14-17.14s7.67-17.13,17.14-17.13,17.13,7.67,17.13,17.13-7.67,17.14-17.13,17.14Z"/>
        <path class="cls-1" d="m389.13,51.69c0-11.59-9.43-21.02-21.02-21.02s-21.02,9.43-21.02,21.02,9.43,21.02,21.02,21.02c8.55,0,16.31-5.27,19.5-13.16h-10.55c-2.21,2.39-5.5,3.81-8.84,3.81-5.58,0-10.45-3.93-11.57-9.35l-.09-.46h32.5c.06-.62.08-1.24.08-1.86h0Zm-31.76-4.91l.28-.55c2.02-4.02,6.07-6.52,10.57-6.52s8.54,2.5,10.57,6.52l.28.55h-21.68Z"/>
        <path class="cls-1" d="m324.98,40.03c3.28,0,6.12,2.34,6.74,5.57.07.36.1.75.11,1.23l.2,24.38h11.19v-27.97c0-7.61-5.94-13.14-14.13-13.14-6.37,0-9.53,2.26-10.85,3.61l-.65.66v-4.32h-10.68c0,14.85.12,37.95.15,41.15h11.03l.02-24.31c0-3.79,3.08-6.87,6.87-6.87h0Z"/>
        <rect class="cls-1" x="290.67" y="30.06" width="11.11" height="41.15"/>
        <rect class="cls-1" x="274.24" y="16.69" width="11.11" height="54.52"/>
        <path class="cls-1" d="m296.22,16.27c-2.89,0-5.24,2.35-5.24,5.24s2.35,5.24,5.24,5.24,5.24-2.35,5.24-5.24-2.35-5.24-5.24-5.24Z"/>
        <path class="cls-1" d="m251.46,40.03c3.28,0,6.12,2.34,6.74,5.57.07.36.1.75.11,1.23l.2,24.38h11.19v-27.97c0-7.61-5.94-13.14-14.13-13.14-6.37,0-9.53,2.26-10.85,3.61l-.65.66v-4.32h-10.68c0,14.85.12,37.95.15,41.15h11.03l.02-24.31c0-3.79,3.08-6.87,6.87-6.87h0Z"/>
      </g>
    </g>
  </g>
</svg>