<?xml version="1.0" encoding="utf-8"?>
<!-- Generator: Adobe Illustrator 27.6.1, SVG Export Plug-In . SVG Version: 6.00 Build 0)  -->
<svg version="1.1" id="v1Copy1a" xmlns="http://www.w3.org/2000/svg" xmlns:xlink="http://www.w3.org/1999/xlink" x="0px" y="0px"
	 viewBox="0 0 1080 1080" style="enable-background:new 0 0 1080 1080;" xml:space="preserve">
<style type="text/css">
	.st0{fill:#FFFFFF;}
</style>
<g id="pre_x5F_v1Copy1a">
	<g>
		<g>
			<path class="st0" d="M254,631.4c0.9,0,1.5,0.3,1.9,0.8c0.4,0.6,0.6,1.5,0.6,2.8s-0.2,2.5-0.5,3.8c-0.3,1.3-0.9,2.5-1.6,3.7
				c-0.3,0.5-0.8,1.3-1.4,2.2c-2,3-3,5.5-3,7.3c0,1.4,0.4,2.5,1.2,3.4c0.8,0.8,1.8,1.2,3.2,1.2c1.2,0,2.2-0.3,3-1
				c0.7-0.7,1.3-1.7,1.7-3.1c0.5-1.9,1-3.2,1.5-3.6s1.2-0.7,2.1-0.7s1.6,0.3,2.1,0.9c0.5,0.6,0.7,1.5,0.7,2.6c0,2.3-1.1,4.2-3.4,5.8
				s-5.1,2.4-8.5,2.4s-6.1-0.8-8.1-2.4c-2-1.6-3.1-3.7-3.1-6.3c0-1.5,0.3-2.8,1-4s1.9-2.6,3.8-4.1c0.2-0.1,0.4-0.4,0.9-0.7
				c1.9-1.5,3.1-3,3.7-4.6c0.1-0.4,0.2-0.8,0.3-1.2s0.1-1,0.1-1.7v-0.5c0-0.4,0-0.6,0-0.8s0.1-0.3,0.1-0.4c0.2-0.7,0.4-1.2,0.7-1.4
				S253.4,631.4,254,631.4L254,631.4z M258.5,623.4c0,1.2-0.4,2.2-1.3,3s-1.9,1.2-3.2,1.2s-2.3-0.4-3.2-1.2s-1.3-1.8-1.3-3
				s0.4-2.2,1.3-3c0.9-0.8,1.9-1.2,3.2-1.2s2.3,0.4,3.1,1.2C258,621.2,258.5,622.2,258.5,623.4L258.5,623.4z"/>
			<path class="st0" d="M287.9,636.1c2.2-3,3.9-5.4,4.9-7.1c1.1-1.7,1.6-2.8,1.6-3.3s-0.1-0.9-0.4-1.2s-0.9-0.6-1.7-1
				c-0.7-0.3-1.2-0.5-1.5-0.8s-0.4-0.6-0.4-1c0-0.8,0.4-1.3,1.2-1.5c0.8-0.3,2.8-0.4,6-0.4s5.1,0.1,5.9,0.4c0.8,0.3,1.2,0.8,1.2,1.5
				s-0.5,1.3-1.6,1.7s-1.8,0.8-2.2,1c-0.9,0.6-2.2,2.2-4,4.9s-4.2,6.3-7,10.9c0,1.2,0,2.8,0.1,4.8c0.1,6.1,0.4,9.4,0.9,9.8
				c0.2,0.2,0.7,0.4,1.3,0.6c1.2,0.4,1.8,1,1.8,1.8s-0.5,1.4-1.6,1.7s-3.1,0.5-6.2,0.5s-5-0.2-6.1-0.5s-1.6-0.9-1.6-1.7
				c0-0.7,0.6-1.3,1.8-1.8c0.6-0.2,1-0.4,1.3-0.6c0.6-0.5,1-4.4,1-11.9c0-1.1,0-1.9,0-2.5l-3.5-5.4c-2.5-4-4.3-6.7-5.5-8.2
				s-2-2.5-2.6-2.9c-0.3-0.2-0.8-0.4-1.4-0.6c-1.3-0.4-1.9-1-1.9-1.7s0.5-1.3,1.4-1.5c0.9-0.3,3.2-0.4,7-0.4s6,0.1,6.9,0.4
				c0.9,0.3,1.4,0.8,1.4,1.5s-0.8,1.3-2.2,1.9H282c-0.4,0.1-0.7,0.3-0.9,0.5c-0.2,0.2-0.3,0.5-0.3,0.8c0,0.4,0.4,1.2,1.2,2.6
				C282.9,628.9,284.9,631.7,287.9,636.1L287.9,636.1z"/>
			<path class="st0" d="M316.1,637.4c0.2-0.6,0.6-1.4,1-2.4c2.8-6.5,4.5-11.2,5.2-14c0.2-0.8,0.5-1.4,0.9-1.6
				c0.4-0.2,1.2-0.3,2.2-0.3c0.7,0,1.3,0.1,1.7,0.4c0.4,0.2,0.8,0.7,1.2,1.4c1.1,2.1,2.6,5.1,4.4,9.1s3.7,8.3,5.7,13
				c0.3,0.8,0.8,1.9,1.4,3.2c2.2,5.3,3.9,8.3,5.2,8.9c0.2,0.1,0.5,0.2,1,0.4c1.2,0.4,1.8,0.9,1.8,1.6c0,0.8-0.6,1.4-1.7,1.7
				s-3.4,0.5-6.9,0.5s-5.7-0.2-6.8-0.5c-1.1-0.3-1.7-0.9-1.7-1.7c0-0.7,0.7-1.2,2.1-1.7c0.2-0.1,0.4-0.1,0.4-0.2
				c0.5-0.2,0.9-0.4,1.1-0.6c0.2-0.2,0.3-0.6,0.3-1c0-0.5-0.1-1.3-0.4-2.3s-0.7-2-1.1-2.9c-0.2-0.4-0.4-0.7-0.5-0.8
				s-0.2-0.2-0.4-0.2c-0.4-0.1-1.1-0.2-2.3-0.2c-1.2-0.1-2.6-0.1-4.4-0.1h-1.4c-2.9,0-4.8,0.1-5.8,0.2c-1,0.1-1.6,0.3-1.9,0.6
				c-0.4,0.5-0.9,1.2-1.3,2.3s-0.6,1.9-0.6,2.6c0,0.6,0.1,1,0.4,1.4s0.7,0.7,1.3,0.9c0.2,0.1,0.6,0.2,1,0.4c1.2,0.4,1.8,1,1.8,1.7
				c0,0.8-0.5,1.4-1.5,1.7s-2.9,0.5-5.9,0.5c-2.9,0-4.9-0.2-5.9-0.5s-1.5-0.9-1.5-1.7c0-0.7,0.6-1.3,1.7-1.7
				c0.5-0.2,0.9-0.4,1.1-0.5c1.5-0.8,2.8-2.8,4.1-6c0.3-0.7,0.5-1.2,0.7-1.6L316.1,637.4L316.1,637.4z M330.6,643.1
				c-1-2.7-2-5.2-3-7.6c-1-2.3-2-4.5-2.9-6.5h-0.8c-1,2.2-2,4.5-3,6.9s-1.9,4.7-2.9,7.2c1-0.1,2.1-0.1,3.1-0.2c1,0,2.1,0,3.2,0
				c1,0,2.1,0,3.1,0C328.6,643,329.6,643,330.6,643.1z"/>
			<path class="st0" d="M390.2,619.7c2.3,0,4.3-0.1,5.8-0.3c0.2,0,0.3,0,0.3,0c0.9,0,1.7,0.7,2.3,2.2c0.6,1.5,0.9,3.4,0.9,5.8
				c0,1.1-0.1,1.9-0.4,2.4s-0.7,0.7-1.3,0.7c-0.3,0-0.7-0.1-1-0.3s-0.6-0.5-0.8-0.9c-0.2-0.4-0.5-1-0.9-1.9s-0.7-1.5-0.9-1.8
				c-0.5-0.7-1.2-1.2-1.9-1.5c-0.8-0.3-1.8-0.5-3.1-0.5H388c-0.8,0-1.3,0.1-1.7,0.2c-0.3,0.2-0.5,0.5-0.6,1
				c-0.1,0.9-0.2,2.4-0.2,4.4s-0.1,4.5-0.1,7.2c0,5.7,0,10,0.2,13s0.3,4.7,0.5,5s0.8,0.6,1.9,1c1,0.4,1.5,0.9,1.5,1.7
				s-0.5,1.4-1.6,1.7s-3.1,0.5-6.1,0.5s-5-0.2-6.1-0.5s-1.6-0.9-1.6-1.7c0-0.7,0.5-1.3,1.6-1.7c1-0.4,1.7-0.7,1.8-1
				c0.2-0.3,0.4-2,0.5-5s0.2-7.4,0.2-13c0-2.7,0-5.2-0.1-7.2c-0.1-2.1-0.1-3.5-0.3-4.4c-0.1-0.5-0.2-0.8-0.6-1
				c-0.3-0.2-0.9-0.2-1.7-0.2h-1.3c-1.3,0-2.3,0.2-3.1,0.5c-0.7,0.3-1.4,0.8-1.9,1.5c-0.3,0.3-0.6,1-0.9,1.8s-0.6,1.5-0.8,1.9
				c-0.2,0.3-0.5,0.6-0.9,0.9c-0.3,0.2-0.7,0.3-1,0.3c-0.6,0-1-0.2-1.3-0.7c-0.2-0.5-0.4-1.3-0.4-2.4c0-2.4,0.3-4.4,0.9-5.8
				s1.4-2.2,2.3-2.2c0.1,0,0.2,0,0.3,0c1.5,0.2,3.4,0.3,5.8,0.3H390.2L390.2,619.7z"/>
			<path class="st0" d="M408.2,659.1c-2.8,0-4.5-0.1-5.2-0.4c-0.7-0.2-1-0.7-1-1.4c0-0.8,0.6-1.5,1.8-1.9c0.6-0.2,1-0.4,1.2-0.6
				c0.4-0.3,0.7-1.6,0.9-3.9c0.2-2.3,0.3-6.2,0.3-11.8c0-4-0.1-7.3-0.3-10.1c-0.2-2.8-0.4-4.4-0.6-4.7c-0.2-0.2-0.8-0.6-1.8-1
				s-1.5-1-1.5-1.8c0-0.7,0.4-1.2,1.3-1.5s3-0.4,6.3-0.4h17.7c0.9,0,1.9-0.1,2.8-0.3c1-0.2,1.5-0.3,1.5-0.3c0.3,0,0.5,0.1,0.7,0.2
				c0.2,0.1,0.4,0.3,0.5,0.5c0.4,0.6,0.8,1.6,1.1,2.9c0.4,1.3,0.5,2.3,0.5,3.2c0,0.8-0.2,1.4-0.5,1.9s-0.8,0.7-1.3,0.7
				c-0.7,0-1.4-0.6-2.2-1.9c-0.4-0.5-0.6-1-0.9-1.3c-0.4-0.6-1-1-1.9-1.3s-1.9-0.5-3.2-0.5h-4c-1.9,0-3.3,0.1-4.2,0.3
				c-0.9,0.2-1.6,0.5-2,1c-0.3,0.4-0.5,1.2-0.7,2.4c-0.1,1.2-0.2,2.9-0.2,5.3v2.2c0,0.9,0.1,1.4,0.2,1.6c0.2,0.2,0.5,0.3,1.1,0.3
				h5.2c1.6,0,2.6-0.2,3.3-0.6c0.6-0.4,1-1.2,1.2-2.3c0-0.1,0.1-0.4,0.1-0.7c0.3-1.8,0.9-2.7,1.9-2.7c0.9,0,1.4,0.5,1.8,1.5
				s0.5,3.3,0.5,6.8s-0.2,5.7-0.5,6.7s-0.9,1.5-1.8,1.5c-1,0-1.6-0.9-1.9-2.7c0-0.3-0.1-0.5-0.1-0.7c-0.2-1.1-0.6-1.9-1.2-2.3
				s-1.7-0.7-3.3-0.7h-5.1c-0.5,0-0.9,0.2-1.1,0.5s-0.3,1-0.3,2.2v2.6c0,2.4,0,4.2,0.1,5.3c0.1,1.2,0.3,2,0.5,2.5
				c0.3,0.6,0.9,1,1.9,1.3c1,0.2,2.5,0.4,4.6,0.4h3.7c2,0,3.6-0.2,4.6-0.7c1.1-0.5,2-1.4,2.8-2.7c0.3-0.4,0.5-1,0.9-1.8
				c0.6-1.4,1.2-2.1,1.9-2.1c0.5,0,0.9,0.2,1.1,0.7c0.3,0.5,0.4,1.1,0.4,1.9c0,0.9-0.1,2.1-0.5,3.4c-0.3,1.4-0.7,2.7-1.2,4
				c-0.3,0.7-0.6,1.2-0.9,1.5s-0.7,0.5-1.1,0.5c-0.1,0-0.3-0.1-0.7-0.2c-1.3-0.3-2.5-0.5-3.8-0.5L408.2,659.1L408.2,659.1z"/>
			<path class="st0" d="M446.4,628.8c0,0.5-0.1,1.1-0.1,1.9c0,0.7,0,2,0,3.7v2.6c0,8,0.1,13.1,0.4,15.1c0.2,2,0.6,3.1,1.3,3.1
				c0.5,0,1.1,0.2,1.6,0.6c0.6,0.4,0.8,0.9,0.8,1.4c0,0.8-0.5,1.4-1.4,1.7s-2.5,0.5-4.8,0.5s-3.9-0.2-4.8-0.5s-1.4-0.9-1.4-1.7
				c0-0.7,0.5-1.2,1.5-1.6c1-0.4,1.6-0.7,1.8-0.9c0.3-0.4,0.5-1.8,0.6-4.4c0.1-2.6,0.2-6.3,0.2-11c0-4.1-0.1-7.6-0.2-10.3
				s-0.3-4.2-0.6-4.6c-0.2-0.3-0.8-0.6-1.8-1s-1.5-1-1.5-1.6c0-0.7,0.4-1.2,1.3-1.5s2.5-0.4,4.9-0.4c1.6,0,2.7,0,3.2,0.1
				s0.9,0.2,1.1,0.4c0.5,0.4,1.9,2,4.1,4.8s4.2,5.1,5.8,7.1l6.5,7.6c1.8,2.1,3.3,3.8,4.4,5.1c1.2,1.3,2.2,2.4,3,3.3
				c0-0.3,0-0.7,0-1.1c0-0.4,0-1.1,0-2c0-5.4-0.1-10-0.2-13.7s-0.3-5.9-0.4-6.5c-0.1-0.2-0.2-0.4-0.4-0.6c-0.2-0.2-0.4-0.3-0.6-0.4
				c-1.1-0.4-1.7-0.7-2-1s-0.4-0.6-0.4-1c0-0.7,0.4-1.2,1.2-1.5c0.8-0.3,2.5-0.4,5.1-0.4c2.4,0,4,0.1,4.8,0.4
				c0.8,0.3,1.2,0.8,1.2,1.5c0,0.4-0.1,0.7-0.3,1s-0.6,0.5-1.1,0.7c-0.1,0-0.3,0.1-0.6,0.2c-0.8,0.3-1.3,0.7-1.4,1.1
				c-0.2,0.8-0.4,3-0.5,6.6s-0.1,9.2-0.1,16.6c0,1.5,0,3.3,0.1,5.2c0,1.9,0.1,3.1,0.1,3.4c0,1.4-0.1,2.2-0.3,2.6
				c-0.2,0.3-0.6,0.5-1.1,0.5c-2,0-6.5-4.1-13.3-12.3c-0.4-0.5-0.7-0.8-0.9-1.1l-6.4-7.6c-2.9-3.5-4.9-5.9-5.9-7
				C447.8,630.2,447,629.3,446.4,628.8L446.4,628.8z"/>
			<path class="st0" d="M489.6,659.1c-2.8,0-4.5-0.1-5.2-0.4s-1.1-0.7-1.1-1.4c0-0.8,0.6-1.5,1.8-1.9c0.6-0.2,1-0.4,1.2-0.6
				c0.4-0.3,0.7-1.6,0.9-3.9c0.2-2.3,0.3-6.2,0.3-11.8c0-4-0.1-7.3-0.3-10.1c-0.2-2.8-0.4-4.4-0.6-4.7c-0.2-0.2-0.8-0.6-1.8-1
				s-1.5-1-1.5-1.8c0-0.7,0.4-1.2,1.3-1.5s3-0.4,6.3-0.4h17.7c0.9,0,1.9-0.1,2.8-0.3c1-0.2,1.5-0.3,1.5-0.3c0.3,0,0.5,0.1,0.7,0.2
				c0.2,0.1,0.4,0.3,0.5,0.5c0.4,0.6,0.8,1.6,1.1,2.9c0.4,1.3,0.5,2.3,0.5,3.2c0,0.8-0.2,1.4-0.5,1.9s-0.8,0.7-1.3,0.7
				c-0.7,0-1.4-0.6-2.2-1.9c-0.4-0.5-0.6-1-0.9-1.3c-0.4-0.6-1-1-1.9-1.3s-1.9-0.5-3.2-0.5h-4c-1.9,0-3.3,0.1-4.2,0.3
				c-1,0.2-1.6,0.5-2,1c-0.3,0.4-0.5,1.2-0.7,2.4c-0.1,1.2-0.2,2.9-0.2,5.3v2.2c0,0.9,0.1,1.4,0.2,1.6c0.2,0.2,0.5,0.3,1.1,0.3h5.2
				c1.5,0,2.6-0.2,3.3-0.6c0.6-0.4,1-1.2,1.2-2.3c0-0.1,0.1-0.4,0.1-0.7c0.3-1.8,0.9-2.7,1.9-2.7c0.9,0,1.4,0.5,1.8,1.5
				s0.5,3.3,0.5,6.8s-0.2,5.7-0.5,6.7s-0.9,1.5-1.8,1.5c-1,0-1.6-0.9-1.9-2.7c0-0.3-0.1-0.5-0.1-0.7c-0.2-1.1-0.6-1.9-1.2-2.3
				s-1.7-0.7-3.3-0.7H496c-0.5,0-0.9,0.2-1.1,0.5s-0.3,1-0.3,2.2v2.6c0,2.4,0,4.2,0.1,5.3c0.1,1.2,0.3,2,0.5,2.5
				c0.3,0.6,0.9,1,1.9,1.3c1,0.2,2.5,0.4,4.6,0.4h3.7c2,0,3.5-0.2,4.6-0.7s2-1.4,2.8-2.7c0.3-0.4,0.5-1,0.9-1.8
				c0.5-1.4,1.2-2.1,1.9-2.1c0.5,0,0.9,0.2,1.2,0.7s0.4,1.1,0.4,1.9c0,0.9-0.2,2.1-0.5,3.4c-0.3,1.4-0.7,2.7-1.2,4
				c-0.3,0.7-0.6,1.2-0.9,1.5s-0.7,0.5-1,0.5c-0.1,0-0.3-0.1-0.7-0.2c-1.3-0.3-2.5-0.5-3.8-0.5L489.6,659.1L489.6,659.1z
				 M497.6,616.1c-0.2,0.1-0.3,0.1-0.5,0.2c-0.1,0-0.2,0.1-0.3,0.1c-0.3,0-0.6-0.3-1.1-0.8c-0.4-0.6-0.6-1.1-0.6-1.5
				c0-0.1,0.1-0.3,0.1-0.4c0.1-0.1,0.3-0.3,0.6-0.5l9.8-5.7c0.4-0.2,0.6-0.4,0.9-0.4s0.4-0.1,0.7-0.1c0.5,0,1.1,0.4,1.7,1.1
				s0.8,1.5,0.8,2.1s-0.6,1.1-1.7,1.5h-0.1L497.6,616.1L497.6,616.1z"/>
			<path class="st0" d="M541.9,620.2c0.4-0.3,0.8-0.6,1.2-0.7c0.4-0.1,0.7-0.2,1-0.2c0.5,0,0.9,0.1,1.3,0.4c0.4,0.3,0.8,0.8,1.2,1.5
				c0.6,1.1,1.2,2.3,1.5,3.5c0.4,1.2,0.6,2.2,0.6,3.2c0,0.6-0.1,1.1-0.5,1.4c-0.3,0.3-0.7,0.5-1.3,0.5c-1,0-2-0.7-3-2
				c-0.2-0.2-0.3-0.4-0.4-0.5c-1.1-1.4-2.3-2.4-3.5-3c-1.3-0.6-2.7-1-4.3-1c-2.2,0-3.9,0.5-5.1,1.4s-1.9,2.3-1.9,3.9
				c0,1.5,0.5,2.7,1.5,3.7s3.6,2.3,7.8,4c0.3,0.1,0.7,0.3,1.2,0.5c3.4,1.4,5.9,2.7,7.5,4c1,0.9,1.9,2,2.4,3.2s0.8,2.6,0.8,4
				c0,3.8-1.4,6.7-4.1,8.8c-2.8,2.1-6.6,3.1-11.5,3.1c-2.3,0-4.6-0.2-6.7-0.7c-2.1-0.5-3.9-1-5.2-1.8c-0.8-0.4-1.4-1.4-1.9-3
				s-0.8-3.4-0.8-5.5c0-0.8,0.2-1.5,0.5-1.9s0.8-0.7,1.4-0.7c0.9,0,1.8,0.8,2.8,2.5c0.3,0.5,0.5,0.9,0.7,1.2c1.2,2,2.6,3.5,4,4.4
				c1.5,0.9,3.2,1.4,5.1,1.4c2.2,0,4-0.6,5.4-1.8s2.2-2.6,2.2-4.4c0-2.6-2.9-5-8.6-7.4c-0.4-0.2-0.7-0.3-0.9-0.4
				c-4.7-2-7.8-3.8-9.3-5.4c-1.5-1.6-2.3-3.7-2.3-6.3c0-3.3,1.3-6,3.8-8.1s5.9-3.2,9.9-3.2c1.1,0,2.2,0.1,3.5,0.3
				C539.1,619.5,540.4,619.8,541.9,620.2L541.9,620.2z"/>
			<path class="st0" d="M594.8,619.7c2.3,0,4.3-0.1,5.8-0.3c0.2,0,0.3,0,0.3,0c0.9,0,1.7,0.7,2.3,2.2s0.9,3.4,0.9,5.8
				c0,1.1-0.1,1.9-0.4,2.4c-0.3,0.5-0.7,0.7-1.3,0.7c-0.3,0-0.7-0.1-1-0.3s-0.6-0.5-0.8-0.9s-0.5-1-0.9-1.9
				c-0.3-0.9-0.7-1.5-0.9-1.8c-0.5-0.7-1.2-1.2-1.9-1.5c-0.8-0.3-1.8-0.5-3.1-0.5h-1.2c-0.8,0-1.3,0.1-1.7,0.2
				c-0.3,0.2-0.5,0.5-0.6,1c-0.1,0.9-0.2,2.4-0.2,4.4c-0.1,2.1-0.1,4.5-0.1,7.2c0,5.7,0,10,0.2,13c0.1,3,0.3,4.7,0.5,5
				s0.8,0.6,1.9,1s1.5,0.9,1.5,1.7s-0.5,1.4-1.6,1.7s-3.1,0.5-6.1,0.5s-5-0.2-6.1-0.5s-1.6-0.9-1.6-1.7c0-0.7,0.5-1.3,1.6-1.7
				c1-0.4,1.7-0.7,1.8-1c0.2-0.3,0.4-2,0.5-5s0.2-7.4,0.2-13c0-2.7,0-5.2-0.1-7.2c-0.1-2.1-0.2-3.5-0.3-4.4c-0.1-0.5-0.2-0.8-0.6-1
				c-0.3-0.2-0.9-0.2-1.7-0.2h-1.3c-1.3,0-2.3,0.2-3.1,0.5s-1.4,0.8-1.9,1.5c-0.3,0.3-0.6,1-0.9,1.8c-0.4,0.8-0.6,1.5-0.8,1.9
				c-0.2,0.3-0.5,0.6-0.8,0.9c-0.3,0.2-0.7,0.3-1,0.3c-0.6,0-1-0.2-1.3-0.7c-0.2-0.5-0.4-1.3-0.4-2.4c0-2.4,0.3-4.4,0.9-5.8
				s1.4-2.2,2.3-2.2c0.1,0,0.2,0,0.3,0c1.5,0.2,3.4,0.3,5.8,0.3H594.8L594.8,619.7z"/>
			<path class="st0" d="M610.8,640c0-4.3-0.1-8-0.2-10.9c-0.2-2.9-0.4-4.5-0.6-4.9c-0.2-0.3-0.8-0.6-1.8-1s-1.5-0.9-1.5-1.7
				c0-0.7,0.4-1.2,1.2-1.4c0.8-0.3,3-0.4,6.6-0.4s5.8,0.1,6.6,0.4c0.8,0.3,1.2,0.8,1.2,1.4c0,0.8-0.6,1.4-1.8,1.8
				c-0.6,0.2-1,0.4-1.3,0.6c-0.4,0.3-0.7,1.5-0.8,3.6c-0.2,2.1-0.2,5.5-0.2,9.9c0,4.1,0,6.8,0.1,8.3s0.2,2.7,0.4,3.6
				c0.3,2.1,1.4,3.8,3.2,5s4.1,1.9,6.8,1.9c3.6,0,6.3-1,7.9-2.8c1.7-1.9,2.5-4.9,2.5-9.1c0-6.2-0.1-11-0.2-14.5s-0.3-5.4-0.5-5.7
				s-0.8-0.6-1.9-1c-1-0.4-1.5-0.9-1.5-1.7c0-0.7,0.4-1.2,1.2-1.5s2.5-0.4,5-0.4s4.3,0.1,5.1,0.4c0.8,0.3,1.2,0.8,1.2,1.5
				s-0.6,1.3-1.8,1.8c-0.6,0.2-1,0.4-1.3,0.6c-0.4,0.3-0.7,1.3-0.8,3.1c-0.2,1.8-0.2,5-0.2,9.5c0,0.7,0,1.8,0,3.4c0,1.6,0,2.9,0,3.8
				c0,3-0.2,5.4-0.6,7.2c-0.4,1.8-1.1,3.2-2,4.3c-1.4,1.6-3.1,2.8-5.3,3.6s-4.8,1.2-7.7,1.2c-5.5,0-9.7-1.2-12.5-3.5
				s-4.2-5.8-4.2-10.4c0-0.7,0-1.7,0.1-3.1C610.8,641.7,610.8,640.7,610.8,640L610.8,640z"/>
		</g>
		<path class="st0" d="M744.7,620c1.1,0.1,5.1-0.2,6,3.8c3.8-3.7,3.1-8.5,0.4-10.4c-4.6-3.2-9.5-0.3-9.9,3
			C740.9,618.5,742.1,619.8,744.7,620L744.7,620z M838.8,614.8c-2.5-0.1-6.3,4.1-9.3,4.1c-2,0-2.2-1.5-1-4.1c4.5-9.6-1-9.3-2.1-8.4
			c0,0,3.9-6.9-3-6.8c-8.5,0-16,7.1-19.9,17.7c-1.4,3.6-4.6,11.3-7.9,12.2c-3.2,0.9-3.2-3.3-5.2-4.1c13.5-9.1,13.7-16.5,11.5-19
			c-1.9-2.2-8.3-2.9-16.2,5.3c1.9-7.3,7.4-11.7,8.8-19c0.7-4.3-2.5-8.8-8.5-1.6c-4.1,4.8-6.2,13.7-10.1,25
			c-2.3,6.9-7,19.2-11.2,19.2c-1.8,0-2.3-1.6-1.8-6.1c1.1-8.8,8.2-18.9,10.6-26.2c1.8-4.9,0-7.7-2.1-8.2c-2.8-0.5-6.8,2.1-9.8,9.4
			c-2.3,5-4.3,11.9-5.7,19.8c-1.3,6.5-6.5,19.4-11.5,18.8c-1.9-0.2,0-5,2.3-9.7c2-4,3.5-8.8-0.6-8.8c-6.4,0-11,13.1-11.8,22.9
			c-0.4,4.8-0.5,10.2,3.1,10.2c4.5,0,10.4-4.8,15.9-13c0.4,4.6,6.3,10.7,17.6-5.7c0.2,2.5,0.7,6.2,2.6,6.3c0,0,1.7,0.5,3.5-3.6
			s3.8-9.2,4.2-10.2c1-2.3,2.8-2.7,2.9,1.2c0.2,4,1.2,7,4.5,7c6.4,0,12-5.9,13.5-8.1c0.9,3.5,8.8,4.7,17.3-5.7
			c0.4,2.8,2.8,6.7,13.5-1.7C840.1,618.7,840.7,614.8,838.8,614.8L838.8,614.8z M784.5,621.5c-0.2,0-0.7-0.2-0.5-0.7
			c0.9-2.2,2.2-4.2,4-5.7c1.6-1.3,3.2-2.1,4.5-2.1c1.2,0,1.8,0.7,1.8,1.9c0,0.9-0.6,2-1.7,3C788.8,621.5,784.8,621.5,784.5,621.5z
			 M821.2,610.2c-3.7,5.7-2.4,6.4-5.1,10.5c-2.2,3.3-5.2,4.1-6.3,2.4c-1.1-1.7,0-5.5,2.5-8.4S822.8,607.6,821.2,610.2L821.2,610.2z
			 M727.7,647.9c1-19.2,11.4-35.1,11.8-41.8c0.1-2.7-1.3-4.8-4.5-4.7c-5.5,0.2-15.2,8-20.1,17.9c-2.7-8.3-9.3-3.4-12.4,0.2
			c0.6-15.5-4.2-16.9-7-16.8c-8.7,0.4-17.7,12-22.6,20.5c-4.5,7.8-16.1,31.1-6.9,32.5c2.3,0.3,4.6-2.2,6.1-8.2
			c6-22.6,13.2-27.8,16-27.6c7.7,0.6-2.2,29.2-5.6,39.3c-1.9,5.4-3.5,14.1,2.6,13.8c6.9-0.3,9.7-17.6,11.4-27
			c1.9-10.3,4.5-13.6,7.1-13.4c3.1,0.4,1.8,6.5-0.2,12.5c-1.8,6-8.1,20.8-0.7,21.4c7.5,0.3,7.1-13.3,9.2-21.8
			c3.1-12.8,6.6-21.5,10.3-20.8c4.6,1-6.1,17.8-6.9,31.2c-0.5,10.3,4.1,17.9,10.9,14.9C733.5,666.8,727.2,658.3,727.7,647.9
			L727.7,647.9z"/>
	</g>
</g>
</svg>
