<?xml version="1.0" encoding="utf-8"?>
<!-- Generator: Adobe Illustrator 27.6.1, SVG Export Plug-In . SVG Version: 6.00 Build 0)  -->
<svg version="1.1" id="v1Copy3" xmlns="http://www.w3.org/2000/svg" xmlns:xlink="http://www.w3.org/1999/xlink" x="0px" y="0px"
	 viewBox="0 0 1080 1080" style="enable-background:new 0 0 1080 1080;" xml:space="preserve">
<style type="text/css">
	.st0{fill:#FFFFFF;}
</style>
<path class="st0" d="M448.9,1054.2c0,0,0.1,0,0.2-0.1c0.3-0.1,0.5-0.1,0.6-0.1c0.1,0,0.2,0,0.3,0.1s0.2,0.1,0.2,0.2
	c0.2,0.3,0.3,0.6,0.4,1c0.1,0.4,0.2,0.7,0.2,1c0,0.2,0,0.4-0.1,0.5c-0.1,0.1-0.2,0.2-0.4,0.2c-0.2,0-0.6-0.2-1-0.7
	c-0.2-0.2-0.4-0.4-0.5-0.5c-0.3-0.3-0.6-0.5-1.1-0.6c-0.4-0.1-0.9-0.2-1.4-0.2c-1.1,0-1.9,0.3-2.5,1c-0.6,0.7-0.9,1.6-0.9,2.8
	c0,1.5,0.4,2.8,1.1,3.7c0.8,1,1.7,1.5,2.9,1.5c0.5,0,0.9-0.1,1.3-0.2s0.8-0.3,1-0.6c0.1-0.1,0.2-0.2,0.4-0.4
	c0.2-0.3,0.4-0.4,0.6-0.4c0.1,0,0.3,0.1,0.3,0.2c0.1,0.1,0.1,0.3,0.1,0.6c0,0.5-0.1,0.8-0.2,1.1c-0.1,0.3-0.3,0.4-0.6,0.4
	c0,0,0,0-0.1,0s-0.1,0-0.1,0c-0.5,0.3-1,0.4-1.5,0.6c-0.5,0.1-1,0.2-1.6,0.2c-0.8,0-1.6-0.1-2.3-0.4c-0.7-0.2-1.3-0.6-1.9-1.1
	c-0.6-0.5-1.1-1.2-1.4-1.9c-0.3-0.8-0.5-1.6-0.5-2.5c0-0.7,0.1-1.4,0.3-2s0.5-1.2,1-1.7c0.5-0.6,1.2-1.1,1.9-1.4
	c0.8-0.3,1.6-0.5,2.5-0.5c0.3,0,0.6,0,1,0.1S448.2,1054,448.9,1054.2z"/>
<path class="st0" d="M452.8,1059.4c0-1.1,0-2.1-0.1-2.8c0-0.8-0.1-1.2-0.2-1.3c-0.1-0.1-0.2-0.2-0.5-0.3c-0.3-0.1-0.4-0.3-0.4-0.5
	c0-0.2,0.1-0.3,0.4-0.4c0.2-0.1,0.8-0.1,1.8-0.1c0.9,0,1.5,0,1.8,0.1c0.2,0.1,0.4,0.2,0.4,0.4c0,0.2-0.2,0.4-0.5,0.5
	c-0.2,0.1-0.3,0.1-0.4,0.2c-0.1,0.1-0.2,0.3-0.2,0.6c0,0.3-0.1,1.1-0.1,2.2c0,0.2,0.1,0.3,0.3,0.4c0.2,0.1,0.7,0.1,1.5,0.1h0.7
	c0.8,0,1.4,0,1.7,0c0.3,0,0.5-0.1,0.6-0.2c0,0,0.1-0.1,0.1-0.1c0-0.1,0-0.2,0-0.3v-0.3c0-1,0-1.6-0.1-1.9c0-0.3-0.1-0.4-0.2-0.5
	c-0.1,0-0.2-0.1-0.4-0.2c-0.3-0.1-0.5-0.3-0.5-0.5c0-0.2,0.1-0.3,0.4-0.4c0.3-0.1,0.8-0.1,1.8-0.1c1,0,1.6,0,1.8,0.1
	c0.2,0.1,0.4,0.2,0.4,0.4c0,0.2-0.2,0.4-0.5,0.5c-0.2,0.1-0.3,0.1-0.4,0.2c-0.1,0.1-0.2,0.5-0.2,1.1c-0.1,0.7-0.1,1.7-0.1,3.1
	c0,1.2,0,2.2,0.1,3c0,0.8,0.1,1.2,0.2,1.3c0.1,0.1,0.2,0.2,0.5,0.3c0.3,0.1,0.4,0.3,0.4,0.5c0,0.2-0.1,0.4-0.5,0.5s-0.9,0.1-1.7,0.1
	c-0.9,0-1.4,0-1.7-0.1c-0.3-0.1-0.4-0.2-0.4-0.5c0-0.2,0.2-0.4,0.5-0.5c0.2-0.1,0.3-0.1,0.4-0.2c0.1-0.1,0.1-0.3,0.2-0.6
	c0-0.3,0.1-0.9,0.1-1.8c0-0.6,0-0.9,0-1.1c0-0.2,0-0.3-0.1-0.3c-0.1-0.1-0.2-0.2-0.5-0.2c-0.3,0-0.9-0.1-1.9-0.1c-0.9,0-1.4,0-1.7,0
	c-0.3,0-0.5,0.1-0.6,0.2c0,0-0.1,0.1-0.1,0.2c0,0.1,0,0.3,0,0.6v0.6c0,0.9,0,1.5,0.1,1.8c0,0.3,0.1,0.5,0.2,0.6
	c0.1,0,0.2,0.1,0.4,0.2c0.3,0.1,0.5,0.3,0.5,0.5c0,0.2-0.1,0.4-0.4,0.5c-0.3,0.1-0.9,0.1-1.7,0.1c-0.8,0-1.4,0-1.7-0.1
	c-0.3-0.1-0.5-0.2-0.5-0.5c0-0.2,0.2-0.4,0.5-0.5c0.2-0.1,0.3-0.1,0.4-0.2c0.1-0.1,0.2-0.4,0.2-1.1S452.8,1060.9,452.8,1059.4z"/>
<path class="st0" d="M469.8,1065.2c-0.7,0-1.3-0.1-1.9-0.3c-0.6-0.2-1.1-0.4-1.6-0.8c-0.8-0.5-1.4-1.2-1.8-2
	c-0.4-0.8-0.6-1.7-0.6-2.8c0-1.7,0.5-3,1.6-4c1.1-1,2.5-1.5,4.2-1.5c0.7,0,1.3,0.1,1.9,0.3c0.6,0.2,1.2,0.5,1.6,0.9
	c0.7,0.5,1.3,1.2,1.7,2.1c0.4,0.8,0.6,1.7,0.6,2.7c0,0.6-0.1,1.2-0.3,1.8s-0.4,1.1-0.8,1.5c-0.5,0.7-1.2,1.2-2,1.6
	C471.6,1065,470.7,1065.2,469.8,1065.2z M473.2,1060.3c0-1.6-0.4-2.9-1.1-3.9c-0.7-1-1.7-1.5-2.8-1.5c-1,0-1.7,0.4-2.3,1.1
	c-0.6,0.7-0.9,1.6-0.9,2.8c0,1.6,0.4,2.9,1.1,3.9s1.6,1.5,2.8,1.5c1,0,1.8-0.3,2.3-1C472.9,1062.4,473.2,1061.4,473.2,1060.3z"/>
<path class="st0" d="M484.8,1054.2c0,0,0.1,0,0.2-0.1c0.3-0.1,0.5-0.1,0.6-0.1c0.1,0,0.2,0,0.3,0.1s0.2,0.1,0.2,0.2
	c0.2,0.3,0.3,0.6,0.4,1c0.1,0.4,0.2,0.7,0.2,1c0,0.2,0,0.4-0.1,0.5c-0.1,0.1-0.2,0.2-0.4,0.2c-0.2,0-0.6-0.2-1-0.7
	c-0.2-0.2-0.4-0.4-0.5-0.5c-0.3-0.3-0.6-0.5-1.1-0.6c-0.4-0.1-0.9-0.2-1.4-0.2c-1.1,0-1.9,0.3-2.5,1c-0.6,0.7-0.9,1.6-0.9,2.8
	c0,1.5,0.4,2.8,1.1,3.7c0.8,1,1.7,1.5,2.9,1.5c0.5,0,0.9-0.1,1.3-0.2s0.8-0.3,1-0.6c0.1-0.1,0.2-0.2,0.4-0.4
	c0.2-0.3,0.4-0.4,0.6-0.4c0.1,0,0.3,0.1,0.3,0.2c0.1,0.1,0.1,0.3,0.1,0.6c0,0.5-0.1,0.8-0.2,1.1c-0.1,0.3-0.3,0.4-0.6,0.4
	c0,0,0,0-0.1,0s-0.1,0-0.1,0c-0.5,0.3-1,0.4-1.5,0.6c-0.5,0.1-1,0.2-1.6,0.2c-0.8,0-1.6-0.1-2.3-0.4c-0.7-0.2-1.3-0.6-1.9-1.1
	c-0.6-0.5-1.1-1.2-1.4-1.9c-0.3-0.8-0.5-1.6-0.5-2.5c0-0.7,0.1-1.4,0.3-2s0.5-1.2,1-1.7c0.5-0.6,1.2-1.1,1.9-1.4
	c0.8-0.3,1.6-0.5,2.5-0.5c0.3,0,0.6,0,1,0.1S484.1,1054,484.8,1054.2z"/>
<path class="st0" d="M493.5,1065.2c-0.7,0-1.3-0.1-1.9-0.3c-0.6-0.2-1.1-0.4-1.6-0.8c-0.8-0.5-1.4-1.2-1.8-2
	c-0.4-0.8-0.6-1.7-0.6-2.8c0-1.7,0.5-3,1.6-4c1.1-1,2.5-1.5,4.2-1.5c0.7,0,1.3,0.1,1.9,0.3c0.6,0.2,1.2,0.5,1.6,0.9
	c0.7,0.5,1.3,1.2,1.7,2.1c0.4,0.8,0.6,1.7,0.6,2.7c0,0.6-0.1,1.2-0.3,1.8s-0.4,1.1-0.8,1.5c-0.5,0.7-1.2,1.2-2,1.6
	C495.4,1065,494.5,1065.2,493.5,1065.2z M497,1060.3c0-1.6-0.4-2.9-1.1-3.9c-0.7-1-1.7-1.5-2.8-1.5c-1,0-1.7,0.4-2.3,1.1
	c-0.6,0.7-0.9,1.6-0.9,2.8c0,1.6,0.4,2.9,1.1,3.9s1.6,1.5,2.8,1.5c1,0,1.8-0.3,2.3-1C496.7,1062.4,497,1061.4,497,1060.3z"/>
<path class="st0" d="M505.8,1063.8c0.5,0,0.9-0.1,1.2-0.2c0.3-0.1,0.5-0.4,0.8-0.8c0.1-0.1,0.2-0.3,0.3-0.5c0.2-0.4,0.4-0.6,0.6-0.6
	c0.1,0,0.2,0.1,0.3,0.2c0.1,0.1,0.1,0.3,0.1,0.5c0,0.3,0,0.6-0.1,1c-0.1,0.4-0.2,0.7-0.3,1c-0.1,0.2-0.2,0.4-0.3,0.5
	c-0.1,0.1-0.2,0.1-0.4,0.1c-0.5-0.1-1-0.2-1.3-0.2h-4.7c-0.8,0-1.2,0-1.4-0.1c-0.2-0.1-0.3-0.2-0.3-0.4c0-0.2,0.2-0.4,0.5-0.5
	c0.2-0.1,0.3-0.1,0.3-0.2c0.1-0.1,0.2-0.4,0.2-1c0-0.6,0.1-1.7,0.1-3.4c0-1.2,0-2.2-0.1-2.9s-0.1-1.1-0.2-1.2
	c-0.1-0.1-0.2-0.2-0.5-0.3c-0.3-0.1-0.4-0.3-0.4-0.5c0-0.2,0.1-0.3,0.4-0.4c0.2-0.1,0.8-0.1,1.8-0.1c1,0,1.6,0,1.8,0.1
	c0.2,0.1,0.4,0.2,0.4,0.4c0,0.2-0.2,0.4-0.5,0.5c-0.2,0.1-0.3,0.1-0.4,0.2c-0.1,0.1-0.2,0.4-0.2,0.9c0,0.5-0.1,1.3-0.1,2.3
	c0,1.3,0,2.4,0,3.2c0,0.8,0.1,1.3,0.1,1.5c0.1,0.3,0.2,0.4,0.5,0.5c0.2,0.1,0.7,0.1,1.4,0.1H505.8z"/>
<path class="st0" d="M512.6,1058.9c0.1-0.2,0.2-0.4,0.3-0.7c0.8-1.8,1.2-3.1,1.4-3.9c0.1-0.2,0.1-0.4,0.2-0.4
	c0.1-0.1,0.3-0.1,0.6-0.1c0.2,0,0.4,0,0.5,0.1c0.1,0.1,0.2,0.2,0.3,0.4c0.3,0.6,0.7,1.4,1.2,2.5c0.5,1.1,1,2.3,1.6,3.6
	c0.1,0.2,0.2,0.5,0.4,0.9c0.6,1.5,1.1,2.3,1.4,2.5c0.1,0,0.1,0.1,0.3,0.1c0.3,0.1,0.5,0.2,0.5,0.5c0,0.2-0.2,0.4-0.5,0.5
	c-0.3,0.1-1,0.1-1.9,0.1c-0.9,0-1.6,0-1.9-0.1c-0.3-0.1-0.5-0.2-0.5-0.5c0-0.2,0.2-0.3,0.6-0.5c0.1,0,0.1,0,0.1,0
	c0.1,0,0.3-0.1,0.3-0.2c0.1-0.1,0.1-0.2,0.1-0.3c0-0.1,0-0.3-0.1-0.6c-0.1-0.3-0.2-0.6-0.3-0.8c-0.1-0.1-0.1-0.2-0.2-0.2
	c0,0-0.1-0.1-0.1-0.1c-0.1,0-0.3,0-0.6-0.1c-0.3,0-0.7,0-1.2,0h-0.4c-0.8,0-1.3,0-1.6,0c-0.3,0-0.4,0.1-0.5,0.2
	c-0.1,0.1-0.2,0.3-0.4,0.6c-0.1,0.3-0.2,0.5-0.2,0.7c0,0.2,0,0.3,0.1,0.4c0.1,0.1,0.2,0.2,0.4,0.3c0.1,0,0.2,0.1,0.3,0.1
	c0.3,0.1,0.5,0.3,0.5,0.5c0,0.2-0.1,0.4-0.4,0.5c-0.3,0.1-0.8,0.1-1.6,0.1c-0.8,0-1.4,0-1.6-0.1s-0.4-0.2-0.4-0.5
	c0-0.2,0.2-0.4,0.5-0.5c0.1-0.1,0.2-0.1,0.3-0.1c0.4-0.2,0.8-0.8,1.1-1.7c0.1-0.2,0.1-0.3,0.2-0.5L512.6,1058.9z M516.7,1060.5
	c-0.3-0.8-0.6-1.5-0.8-2.1c-0.3-0.6-0.5-1.2-0.8-1.8h-0.2c-0.3,0.6-0.6,1.3-0.8,1.9c-0.3,0.6-0.5,1.3-0.8,2c0.3,0,0.6,0,0.9,0
	s0.6,0,0.9,0c0.3,0,0.6,0,0.9,0C516.1,1060.4,516.4,1060.4,516.7,1060.5z"/>
<path class="st0" d="M528.8,1054c0.6,0,1.2,0,1.6-0.1c0,0,0.1,0,0.1,0c0.3,0,0.5,0.2,0.6,0.6s0.2,0.9,0.2,1.6c0,0.3,0,0.5-0.1,0.7
	s-0.2,0.2-0.4,0.2c-0.1,0-0.2,0-0.3-0.1s-0.2-0.1-0.2-0.2c-0.1-0.1-0.1-0.3-0.2-0.5c-0.1-0.2-0.2-0.4-0.3-0.5
	c-0.1-0.2-0.3-0.3-0.5-0.4c-0.2-0.1-0.5-0.1-0.9-0.1h-0.3c-0.2,0-0.4,0-0.5,0.1s-0.1,0.1-0.2,0.3c0,0.2,0,0.7-0.1,1.2
	c0,0.6,0,1.2,0,2c0,1.6,0,2.8,0,3.6c0,0.8,0.1,1.3,0.1,1.4c0.1,0.1,0.2,0.2,0.5,0.3c0.3,0.1,0.4,0.3,0.4,0.5c0,0.2-0.2,0.4-0.5,0.5
	c-0.3,0.1-0.9,0.1-1.7,0.1s-1.4,0-1.7-0.1c-0.3-0.1-0.5-0.2-0.5-0.5c0-0.2,0.1-0.4,0.4-0.5c0.3-0.1,0.5-0.2,0.5-0.3
	c0.1-0.1,0.1-0.6,0.1-1.4c0-0.8,0-2,0-3.6c0-0.8,0-1.4,0-2c0-0.6,0-1-0.1-1.2c0-0.1-0.1-0.2-0.2-0.3c-0.1,0-0.2-0.1-0.5-0.1h-0.4
	c-0.4,0-0.6,0-0.9,0.1c-0.2,0.1-0.4,0.2-0.5,0.4c-0.1,0.1-0.2,0.3-0.3,0.5c-0.1,0.2-0.2,0.4-0.2,0.5c-0.1,0.1-0.1,0.2-0.2,0.2
	c-0.1,0.1-0.2,0.1-0.3,0.1c-0.2,0-0.3-0.1-0.3-0.2c-0.1-0.1-0.1-0.4-0.1-0.7c0-0.7,0.1-1.2,0.2-1.6c0.2-0.4,0.4-0.6,0.6-0.6
	c0,0,0,0,0.1,0c0.4,0.1,1,0.1,1.6,0.1H528.8z"/>
<path class="st0" d="M533.8,1064.9c-0.8,0-1.3,0-1.4-0.1c-0.2-0.1-0.3-0.2-0.3-0.4c0-0.2,0.2-0.4,0.5-0.5c0.2-0.1,0.3-0.1,0.3-0.2
	c0.1-0.1,0.2-0.4,0.2-1.1s0.1-1.7,0.1-3.3c0-1.1,0-2-0.1-2.8s-0.1-1.2-0.2-1.3c-0.1-0.1-0.2-0.2-0.5-0.3c-0.3-0.1-0.4-0.3-0.4-0.5
	c0-0.2,0.1-0.3,0.4-0.4c0.2-0.1,0.8-0.1,1.7-0.1h4.9c0.3,0,0.5,0,0.8-0.1c0.3-0.1,0.4-0.1,0.4-0.1c0.1,0,0.1,0,0.2,0
	c0.1,0,0.1,0.1,0.1,0.1c0.1,0.2,0.2,0.4,0.3,0.8s0.1,0.6,0.1,0.9c0,0.2,0,0.4-0.1,0.5c-0.1,0.1-0.2,0.2-0.4,0.2
	c-0.2,0-0.4-0.2-0.6-0.5c-0.1-0.2-0.2-0.3-0.2-0.4c-0.1-0.2-0.3-0.3-0.5-0.4c-0.2-0.1-0.5-0.1-0.9-0.1h-1.1c-0.5,0-0.9,0-1.2,0.1
	c-0.3,0.1-0.4,0.1-0.5,0.3c-0.1,0.1-0.2,0.3-0.2,0.7c0,0.3-0.1,0.8-0.1,1.5v0.6c0,0.2,0,0.4,0.1,0.5c0,0.1,0.1,0.1,0.3,0.1h1.4
	c0.4,0,0.7-0.1,0.9-0.2s0.3-0.3,0.3-0.6c0,0,0-0.1,0-0.2c0.1-0.5,0.3-0.8,0.5-0.8c0.2,0,0.4,0.1,0.5,0.4c0.1,0.3,0.1,0.9,0.1,1.9
	c0,1,0,1.6-0.1,1.9s-0.2,0.4-0.5,0.4c-0.3,0-0.4-0.3-0.5-0.8c0-0.1,0-0.1,0-0.2c0-0.3-0.2-0.5-0.3-0.6c-0.2-0.1-0.5-0.2-0.9-0.2
	h-1.4c-0.1,0-0.2,0-0.3,0.1c-0.1,0.1-0.1,0.3-0.1,0.6v0.7c0,0.7,0,1.2,0,1.5c0,0.3,0.1,0.5,0.1,0.7c0.1,0.2,0.2,0.3,0.5,0.4
	c0.3,0.1,0.7,0.1,1.3,0.1h1c0.6,0,1-0.1,1.3-0.2c0.3-0.1,0.6-0.4,0.8-0.8c0.1-0.1,0.2-0.3,0.2-0.5c0.2-0.4,0.3-0.6,0.5-0.6
	c0.1,0,0.2,0.1,0.3,0.2c0.1,0.1,0.1,0.3,0.1,0.5c0,0.3,0,0.6-0.1,1c-0.1,0.4-0.2,0.8-0.3,1.1c-0.1,0.2-0.2,0.3-0.3,0.4
	c-0.1,0.1-0.2,0.1-0.3,0.1c0,0-0.1,0-0.2,0c-0.4-0.1-0.7-0.1-1.1-0.1H533.8z"/>
<path class="st0" d="M554.9,1054.2c0,0,0.1,0,0.2-0.1c0.3-0.1,0.5-0.1,0.6-0.1c0.1,0,0.2,0,0.3,0.1s0.2,0.1,0.2,0.2
	c0.2,0.3,0.3,0.6,0.4,1c0.1,0.4,0.2,0.7,0.2,1c0,0.2,0,0.4-0.1,0.5c-0.1,0.1-0.2,0.2-0.4,0.2c-0.2,0-0.6-0.2-1-0.7
	c-0.2-0.2-0.4-0.4-0.5-0.5c-0.3-0.3-0.6-0.5-1.1-0.6c-0.4-0.1-0.9-0.2-1.4-0.2c-1.1,0-1.9,0.3-2.5,1c-0.6,0.7-0.9,1.6-0.9,2.8
	c0,1.5,0.4,2.8,1.1,3.7c0.8,1,1.7,1.5,2.9,1.5c0.5,0,0.9-0.1,1.3-0.2s0.8-0.3,1-0.6c0.1-0.1,0.2-0.2,0.4-0.4
	c0.2-0.3,0.4-0.4,0.6-0.4c0.1,0,0.3,0.1,0.3,0.2c0.1,0.1,0.1,0.3,0.1,0.6c0,0.5-0.1,0.8-0.2,1.1c-0.1,0.3-0.3,0.4-0.6,0.4
	c0,0,0,0-0.1,0s-0.1,0-0.1,0c-0.5,0.3-1,0.4-1.5,0.6c-0.5,0.1-1,0.2-1.6,0.2c-0.8,0-1.6-0.1-2.3-0.4c-0.7-0.2-1.3-0.6-1.9-1.1
	c-0.6-0.5-1.1-1.2-1.4-1.9c-0.3-0.8-0.5-1.6-0.5-2.5c0-0.7,0.1-1.4,0.3-2s0.5-1.2,1-1.7c0.5-0.6,1.2-1.1,1.9-1.4
	c0.8-0.3,1.6-0.5,2.5-0.5c0.3,0,0.6,0,1,0.1S554.2,1054,554.9,1054.2z"/>
<path class="st0" d="M563.6,1065.2c-0.7,0-1.3-0.1-1.9-0.3c-0.6-0.2-1.1-0.4-1.6-0.8c-0.8-0.5-1.4-1.2-1.8-2
	c-0.4-0.8-0.6-1.7-0.6-2.8c0-1.7,0.5-3,1.6-4c1.1-1,2.5-1.5,4.2-1.5c0.7,0,1.3,0.1,1.9,0.3c0.6,0.2,1.2,0.5,1.6,0.9
	c0.7,0.5,1.3,1.2,1.7,2.1c0.4,0.8,0.6,1.7,0.6,2.7c0,0.6-0.1,1.2-0.3,1.8s-0.4,1.1-0.8,1.5c-0.5,0.7-1.2,1.2-2,1.6
	C565.4,1065,564.5,1065.2,563.6,1065.2z M567.1,1060.3c0-1.6-0.4-2.9-1.1-3.9c-0.7-1-1.7-1.5-2.8-1.5c-1,0-1.7,0.4-2.3,1.1
	c-0.6,0.7-0.9,1.6-0.9,2.8c0,1.6,0.4,2.9,1.1,3.9s1.6,1.5,2.8,1.5c1,0,1.8-0.3,2.3-1C566.8,1062.4,567.1,1061.4,567.1,1060.3z"/>
<path class="st0" d="M572.6,1056.5c0,0.1,0,0.3,0,0.5s0,0.5,0,1v0.7c0,2.2,0,3.6,0.1,4.2c0.1,0.6,0.2,0.8,0.4,0.8
	c0.1,0,0.3,0.1,0.5,0.2s0.2,0.2,0.2,0.4c0,0.2-0.1,0.4-0.4,0.5c-0.3,0.1-0.7,0.1-1.3,0.1s-1.1,0-1.3-0.1c-0.3-0.1-0.4-0.2-0.4-0.5
	c0-0.2,0.1-0.3,0.4-0.5s0.5-0.2,0.5-0.3c0.1-0.1,0.1-0.5,0.2-1.2c0-0.7,0.1-1.7,0.1-3c0-1.2,0-2.1-0.1-2.9c0-0.8-0.1-1.2-0.2-1.3
	c-0.1-0.1-0.2-0.2-0.5-0.3c-0.3-0.1-0.4-0.3-0.4-0.5c0-0.2,0.1-0.3,0.4-0.4c0.2-0.1,0.7-0.1,1.4-0.1c0.5,0,0.7,0,0.9,0
	c0.1,0,0.2,0.1,0.3,0.1c0.1,0.1,0.5,0.6,1.1,1.3c0.6,0.8,1.2,1.4,1.6,2l1.8,2.1c0.5,0.6,0.9,1.1,1.2,1.4c0.3,0.4,0.6,0.7,0.8,0.9
	c0-0.1,0-0.2,0-0.3c0-0.1,0-0.3,0-0.6c0-1.5,0-2.8,0-3.8c0-1-0.1-1.6-0.1-1.8c0-0.1-0.1-0.1-0.1-0.2c-0.1-0.1-0.1-0.1-0.2-0.1
	c-0.3-0.1-0.5-0.2-0.6-0.3s-0.1-0.2-0.1-0.3c0-0.2,0.1-0.3,0.3-0.4c0.2-0.1,0.7-0.1,1.4-0.1c0.7,0,1.1,0,1.3,0.1
	c0.2,0.1,0.3,0.2,0.3,0.4c0,0.1,0,0.2-0.1,0.3c-0.1,0.1-0.2,0.1-0.3,0.2c0,0-0.1,0-0.2,0.1c-0.2,0.1-0.4,0.2-0.4,0.3
	c-0.1,0.2-0.1,0.8-0.1,1.8c0,1,0,2.5,0,4.6c0,0.4,0,0.9,0,1.4c0,0.5,0,0.8,0,0.9c0,0.4,0,0.6-0.1,0.7c-0.1,0.1-0.2,0.1-0.3,0.1
	c-0.6,0-1.8-1.1-3.7-3.4c-0.1-0.1-0.2-0.2-0.3-0.3l-1.8-2.1c-0.8-1-1.4-1.6-1.6-2S572.8,1056.6,572.6,1056.5z"/>
<path class="st0" d="M592.9,1063.8c0.5,0,0.9-0.1,1.2-0.2c0.3-0.1,0.5-0.4,0.8-0.8c0.1-0.1,0.2-0.3,0.3-0.5c0.2-0.4,0.4-0.6,0.6-0.6
	c0.1,0,0.2,0.1,0.3,0.2c0.1,0.1,0.1,0.3,0.1,0.5c0,0.3,0,0.6-0.1,1c-0.1,0.4-0.2,0.7-0.3,1c-0.1,0.2-0.2,0.4-0.3,0.5
	c-0.1,0.1-0.2,0.1-0.4,0.1c-0.5-0.1-1-0.2-1.3-0.2h-4.7c-0.8,0-1.2,0-1.4-0.1c-0.2-0.1-0.3-0.2-0.3-0.4c0-0.2,0.2-0.4,0.5-0.5
	c0.2-0.1,0.3-0.1,0.3-0.2c0.1-0.1,0.2-0.4,0.2-1c0-0.6,0.1-1.7,0.1-3.4c0-1.2,0-2.2-0.1-2.9s-0.1-1.1-0.2-1.2
	c-0.1-0.1-0.2-0.2-0.5-0.3c-0.3-0.1-0.4-0.3-0.4-0.5c0-0.2,0.1-0.3,0.4-0.4c0.2-0.1,0.8-0.1,1.8-0.1c1,0,1.6,0,1.8,0.1
	c0.2,0.1,0.4,0.2,0.4,0.4c0,0.2-0.2,0.4-0.5,0.5c-0.2,0.1-0.3,0.1-0.4,0.2c-0.1,0.1-0.2,0.4-0.2,0.9c0,0.5-0.1,1.3-0.1,2.3
	c0,1.3,0,2.4,0,3.2c0,0.8,0.1,1.3,0.1,1.5c0.1,0.3,0.2,0.4,0.5,0.5c0.2,0.1,0.7,0.1,1.4,0.1H592.9z"/>
<path class="st0" d="M598.8,1064.9c-0.8,0-1.3,0-1.4-0.1c-0.2-0.1-0.3-0.2-0.3-0.4c0-0.2,0.2-0.4,0.5-0.5c0.2-0.1,0.3-0.1,0.3-0.2
	c0.1-0.1,0.2-0.4,0.2-1.1s0.1-1.7,0.1-3.3c0-1.1,0-2-0.1-2.8s-0.1-1.2-0.2-1.3c-0.1-0.1-0.2-0.2-0.5-0.3c-0.3-0.1-0.4-0.3-0.4-0.5
	c0-0.2,0.1-0.3,0.4-0.4c0.2-0.1,0.8-0.1,1.7-0.1h4.9c0.3,0,0.5,0,0.8-0.1c0.3-0.1,0.4-0.1,0.4-0.1c0.1,0,0.1,0,0.2,0
	c0.1,0,0.1,0.1,0.1,0.1c0.1,0.2,0.2,0.4,0.3,0.8s0.1,0.6,0.1,0.9c0,0.2,0,0.4-0.1,0.5c-0.1,0.1-0.2,0.2-0.4,0.2
	c-0.2,0-0.4-0.2-0.6-0.5c-0.1-0.2-0.2-0.3-0.2-0.4c-0.1-0.2-0.3-0.3-0.5-0.4c-0.2-0.1-0.5-0.1-0.9-0.1h-1.1c-0.5,0-0.9,0-1.2,0.1
	c-0.3,0.1-0.4,0.1-0.5,0.3c-0.1,0.1-0.2,0.3-0.2,0.7c0,0.3-0.1,0.8-0.1,1.5v0.6c0,0.2,0,0.4,0.1,0.5c0,0.1,0.1,0.1,0.3,0.1h1.4
	c0.4,0,0.7-0.1,0.9-0.2s0.3-0.3,0.3-0.6c0,0,0-0.1,0-0.2c0.1-0.5,0.3-0.8,0.5-0.8c0.2,0,0.4,0.1,0.5,0.4c0.1,0.3,0.1,0.9,0.1,1.9
	c0,1,0,1.6-0.1,1.9s-0.2,0.4-0.5,0.4c-0.3,0-0.4-0.3-0.5-0.8c0-0.1,0-0.1,0-0.2c0-0.3-0.2-0.5-0.3-0.6c-0.2-0.1-0.5-0.2-0.9-0.2
	h-1.4c-0.1,0-0.2,0-0.3,0.1c-0.1,0.1-0.1,0.3-0.1,0.6v0.7c0,0.7,0,1.2,0,1.5c0,0.3,0.1,0.5,0.1,0.7c0.1,0.2,0.2,0.3,0.5,0.4
	c0.3,0.1,0.7,0.1,1.3,0.1h1c0.6,0,1-0.1,1.3-0.2c0.3-0.1,0.6-0.4,0.8-0.8c0.1-0.1,0.2-0.3,0.2-0.5c0.2-0.4,0.3-0.6,0.5-0.6
	c0.1,0,0.2,0.1,0.3,0.2c0.1,0.1,0.1,0.3,0.1,0.5c0,0.3,0,0.6-0.1,1c-0.1,0.4-0.2,0.8-0.3,1.1c-0.1,0.2-0.2,0.3-0.3,0.4
	c-0.1,0.1-0.2,0.1-0.3,0.1c0,0-0.1,0-0.2,0c-0.4-0.1-0.7-0.1-1.1-0.1H598.8z"/>
<path class="st0" d="M615.4,1054.2c0,0,0.1,0,0.2-0.1c0.3-0.1,0.5-0.1,0.6-0.1c0.1,0,0.2,0,0.3,0.1s0.2,0.1,0.2,0.2
	c0.2,0.3,0.3,0.6,0.4,1c0.1,0.4,0.2,0.7,0.2,1c0,0.2,0,0.4-0.1,0.5c-0.1,0.1-0.2,0.2-0.4,0.2c-0.2,0-0.6-0.2-1-0.7
	c-0.2-0.2-0.4-0.4-0.5-0.5c-0.3-0.3-0.6-0.5-1.1-0.6c-0.4-0.1-0.9-0.2-1.4-0.2c-1.1,0-1.9,0.3-2.5,1c-0.6,0.7-0.9,1.6-0.9,2.8
	c0,1.5,0.4,2.8,1.1,3.7c0.8,1,1.7,1.5,2.9,1.5c0.5,0,0.9-0.1,1.3-0.2s0.8-0.3,1-0.6c0.1-0.1,0.2-0.2,0.4-0.4
	c0.2-0.3,0.4-0.4,0.6-0.4c0.1,0,0.3,0.1,0.3,0.2c0.1,0.1,0.1,0.3,0.1,0.6c0,0.5-0.1,0.8-0.2,1.1c-0.1,0.3-0.3,0.4-0.6,0.4
	c0,0,0,0-0.1,0s-0.1,0-0.1,0c-0.5,0.3-1,0.4-1.5,0.6c-0.5,0.1-1,0.2-1.6,0.2c-0.8,0-1.6-0.1-2.3-0.4c-0.7-0.2-1.3-0.6-1.9-1.1
	c-0.6-0.5-1.1-1.2-1.4-1.9c-0.3-0.8-0.5-1.6-0.5-2.5c0-0.7,0.1-1.4,0.3-2s0.5-1.2,1-1.7c0.5-0.6,1.2-1.1,1.9-1.4
	c0.8-0.3,1.6-0.5,2.5-0.5c0.3,0,0.6,0,1,0.1S614.7,1054,615.4,1054.2z"/>
<path class="st0" d="M619.2,1059.4c0-1.1,0-2.1-0.1-2.8c0-0.8-0.1-1.2-0.2-1.3c-0.1-0.1-0.2-0.2-0.5-0.3c-0.3-0.1-0.4-0.3-0.4-0.5
	c0-0.2,0.1-0.3,0.4-0.4c0.2-0.1,0.8-0.1,1.8-0.1c0.9,0,1.5,0,1.8,0.1c0.2,0.1,0.4,0.2,0.4,0.4c0,0.2-0.2,0.4-0.5,0.5
	c-0.2,0.1-0.3,0.1-0.4,0.2c-0.1,0.1-0.2,0.3-0.2,0.6c0,0.3-0.1,1.1-0.1,2.2c0,0.2,0.1,0.3,0.3,0.4c0.2,0.1,0.7,0.1,1.5,0.1h0.7
	c0.8,0,1.4,0,1.7,0c0.3,0,0.5-0.1,0.6-0.2c0,0,0.1-0.1,0.1-0.1c0-0.1,0-0.2,0-0.3v-0.3c0-1,0-1.6-0.1-1.9c0-0.3-0.1-0.4-0.2-0.5
	c-0.1,0-0.2-0.1-0.4-0.2c-0.3-0.1-0.5-0.3-0.5-0.5c0-0.2,0.1-0.3,0.4-0.4c0.3-0.1,0.8-0.1,1.8-0.1c1,0,1.6,0,1.8,0.1
	c0.2,0.1,0.4,0.2,0.4,0.4c0,0.2-0.2,0.4-0.5,0.5c-0.2,0.1-0.3,0.1-0.4,0.2c-0.1,0.1-0.2,0.5-0.2,1.1c-0.1,0.7-0.1,1.7-0.1,3.1
	c0,1.2,0,2.2,0.1,3c0,0.8,0.1,1.2,0.2,1.3c0.1,0.1,0.2,0.2,0.5,0.3c0.3,0.1,0.4,0.3,0.4,0.5c0,0.2-0.1,0.4-0.5,0.5s-0.9,0.1-1.7,0.1
	c-0.9,0-1.4,0-1.7-0.1c-0.3-0.1-0.4-0.2-0.4-0.5c0-0.2,0.2-0.4,0.5-0.5c0.2-0.1,0.3-0.1,0.4-0.2c0.1-0.1,0.1-0.3,0.2-0.6
	c0-0.3,0.1-0.9,0.1-1.8c0-0.6,0-0.9,0-1.1c0-0.2,0-0.3-0.1-0.3c-0.1-0.1-0.2-0.2-0.5-0.2c-0.3,0-0.9-0.1-1.9-0.1c-0.9,0-1.4,0-1.7,0
	c-0.3,0-0.5,0.1-0.6,0.2c0,0-0.1,0.1-0.1,0.2c0,0.1,0,0.3,0,0.6v0.6c0,0.9,0,1.5,0.1,1.8c0,0.3,0.1,0.5,0.2,0.6
	c0.1,0,0.2,0.1,0.4,0.2c0.3,0.1,0.5,0.3,0.5,0.5c0,0.2-0.1,0.4-0.4,0.5c-0.3,0.1-0.9,0.1-1.7,0.1c-0.8,0-1.4,0-1.7-0.1
	c-0.3-0.1-0.5-0.2-0.5-0.5c0-0.2,0.2-0.4,0.5-0.5c0.2-0.1,0.3-0.1,0.4-0.2c0.1-0.1,0.2-0.4,0.2-1.1S619.2,1060.9,619.2,1059.4z"/>
<path class="st0" d="M631.9,1064.9c-0.8,0-1.3,0-1.4-0.1c-0.2-0.1-0.3-0.2-0.3-0.4c0-0.2,0.2-0.4,0.5-0.5c0.2-0.1,0.3-0.1,0.3-0.2
	c0.1-0.1,0.2-0.4,0.2-1.1s0.1-1.7,0.1-3.3c0-1.1,0-2-0.1-2.8s-0.1-1.2-0.2-1.3c-0.1-0.1-0.2-0.2-0.5-0.3c-0.3-0.1-0.4-0.3-0.4-0.5
	c0-0.2,0.1-0.3,0.4-0.4c0.2-0.1,0.8-0.1,1.7-0.1h4.9c0.3,0,0.5,0,0.8-0.1c0.3-0.1,0.4-0.1,0.4-0.1c0.1,0,0.1,0,0.2,0
	c0.1,0,0.1,0.1,0.1,0.1c0.1,0.2,0.2,0.4,0.3,0.8s0.1,0.6,0.1,0.9c0,0.2,0,0.4-0.1,0.5c-0.1,0.1-0.2,0.2-0.4,0.2
	c-0.2,0-0.4-0.2-0.6-0.5c-0.1-0.2-0.2-0.3-0.2-0.4c-0.1-0.2-0.3-0.3-0.5-0.4c-0.2-0.1-0.5-0.1-0.9-0.1h-1.1c-0.5,0-0.9,0-1.2,0.1
	c-0.3,0.1-0.4,0.1-0.5,0.3c-0.1,0.1-0.2,0.3-0.2,0.7c0,0.3-0.1,0.8-0.1,1.5v0.6c0,0.2,0,0.4,0.1,0.5c0,0.1,0.1,0.1,0.3,0.1h1.4
	c0.4,0,0.7-0.1,0.9-0.2s0.3-0.3,0.3-0.6c0,0,0-0.1,0-0.2c0.1-0.5,0.3-0.8,0.5-0.8c0.2,0,0.4,0.1,0.5,0.4c0.1,0.3,0.1,0.9,0.1,1.9
	c0,1,0,1.6-0.1,1.9s-0.2,0.4-0.5,0.4c-0.3,0-0.4-0.3-0.5-0.8c0-0.1,0-0.1,0-0.2c0-0.3-0.2-0.5-0.3-0.6c-0.2-0.1-0.5-0.2-0.9-0.2
	h-1.4c-0.1,0-0.2,0-0.3,0.1c-0.1,0.1-0.1,0.3-0.1,0.6v0.7c0,0.7,0,1.2,0,1.5c0,0.3,0.1,0.5,0.1,0.7c0.1,0.2,0.2,0.3,0.5,0.4
	c0.3,0.1,0.7,0.1,1.3,0.1h1c0.6,0,1-0.1,1.3-0.2c0.3-0.1,0.6-0.4,0.8-0.8c0.1-0.1,0.2-0.3,0.2-0.5c0.2-0.4,0.3-0.6,0.5-0.6
	c0.1,0,0.2,0.1,0.3,0.2c0.1,0.1,0.1,0.3,0.1,0.5c0,0.3,0,0.6-0.1,1c-0.1,0.4-0.2,0.8-0.3,1.1c-0.1,0.2-0.2,0.3-0.3,0.4
	c-0.1,0.1-0.2,0.1-0.3,0.1c0,0-0.1,0-0.2,0c-0.4-0.1-0.7-0.1-1.1-0.1H631.9z"/>
</svg>
