<?xml version="1.0" encoding="utf-8"?>
<!-- Generator: Adobe Illustrator 27.6.1, SVG Export Plug-In . SVG Version: 6.00 Build 0)  -->
<svg version="1.1" id="v1Copy2" xmlns="http://www.w3.org/2000/svg" xmlns:xlink="http://www.w3.org/1999/xlink" x="0px" y="0px"
	 viewBox="0 0 1080 1080" style="enable-background:new 0 0 1080 1080;" xml:space="preserve">
<style type="text/css">
	.st0{fill:#FFFFFF;}
</style>
<path class="st0" d="M194.6,834.9c0.1,0,0.3-0.1,0.6-0.2c1.1-0.3,1.9-0.4,2.1-0.4c0.3,0,0.6,0.1,0.9,0.3c0.3,0.2,0.6,0.4,0.7,0.7
	c0.6,0.9,1.1,2,1.5,3.3c0.4,1.3,0.6,2.4,0.6,3.4c0,0.7-0.1,1.2-0.4,1.6c-0.3,0.4-0.7,0.5-1.3,0.5c-0.8,0-1.9-0.8-3.3-2.3
	c-0.7-0.8-1.3-1.4-1.8-1.8c-1-0.9-2.2-1.7-3.7-2.1c-1.5-0.5-3.1-0.7-4.9-0.7c-3.7,0-6.5,1.1-8.6,3.4s-3.1,5.3-3.1,9.2
	c0,5,1.3,9.1,4,12.3c2.7,3.2,6,4.8,10.1,4.8c1.6,0,3.2-0.2,4.6-0.7c1.4-0.5,2.6-1.2,3.6-2c0.4-0.3,0.8-0.8,1.3-1.4
	c0.8-1,1.5-1.5,2.1-1.5c0.5,0,0.9,0.2,1.2,0.7c0.3,0.5,0.4,1.1,0.4,1.9c0,1.6-0.2,2.8-0.7,3.7c-0.5,0.9-1.2,1.4-2,1.4
	c-0.1,0-0.2,0-0.3,0c-0.1,0-0.2,0-0.4-0.1c-1.7,0.8-3.4,1.5-5.2,1.9c-1.7,0.4-3.6,0.6-5.4,0.6c-2.8,0-5.4-0.4-7.9-1.2
	c-2.5-0.8-4.7-2-6.6-3.5c-2.1-1.8-3.8-3.9-4.9-6.4c-1.1-2.5-1.7-5.2-1.7-8.2c0-2.4,0.4-4.6,1.1-6.6c0.7-2,1.9-3.8,3.4-5.5
	c1.8-2,4-3.6,6.6-4.6c2.6-1.1,5.5-1.6,8.6-1.6c1,0,2.1,0.1,3.4,0.3C190.5,834.1,192.3,834.4,194.6,834.9z"/>
<path class="st0" d="M217.9,871.1c-4,0-7.3-1.2-10-3.7c-2.6-2.5-4-5.6-4-9.4c0-3.8,1.4-7,4.2-9.5c2.8-2.5,6.2-3.8,10.4-3.8
	c4,0,7.3,1.2,9.8,3.5c2.6,2.4,3.8,5.4,3.8,9.1c0,3.9-1.4,7.2-4.1,9.8C225.4,869.8,222,871.1,217.9,871.1z M211.1,855.8
	c0,3.3,0.8,6.1,2.3,8.4c1.6,2.2,3.5,3.4,5.7,3.4c1.8,0,3.3-0.7,4.4-2.1c1.1-1.4,1.7-3.2,1.7-5.5c0-3.3-0.8-6.1-2.4-8.3
	c-1.6-2.2-3.5-3.4-5.7-3.4c-1.8,0-3.3,0.7-4.4,2S211.1,853.6,211.1,855.8z"/>
<path class="st0" d="M245.1,847.9v0.3c0,0.1,0,0.2,0.1,0.3c0,0,0.1,0,0.2,0c0,0,0.1,0,0.1,0c0.1,0,0.1,0,0.1-0.1l0.6-0.5
	c0.1-0.1,0.2-0.2,0.3-0.3c2.2-1.9,4.5-2.8,6.8-2.8c0.9,0,1.7,0.1,2.5,0.4s1.6,0.6,2.3,1.1c0.7,0.4,1.4,1,2.1,1.8
	c0.7,0.8,1.1,1.1,1.3,1.1c0.2,0,0.6-0.3,1.1-0.8c0.5-0.5,0.9-0.9,1.2-1.1c1.2-0.9,2.2-1.6,3.1-1.9c0.9-0.3,1.9-0.5,3-0.5
	c2.2,0,4,0.4,5.7,1.2c1.6,0.8,2.8,1.9,3.5,3.3c0.8,1.6,1.2,4.8,1.2,9.8c0,1.1,0,1.9,0,2.5c0,0.4,0,0.8,0,1.4c0,0.6,0,1,0,1.2
	c0,1,0.1,1.7,0.3,2.1c0.2,0.4,0.5,0.8,1,1c0.1,0.1,0.4,0.2,0.7,0.3c0.9,0.3,1.4,0.7,1.4,1.3c0,0.7-0.4,1.2-1.3,1.5
	c-0.9,0.3-2.8,0.4-5.6,0.4c-2.7,0-4.4-0.1-5.3-0.4c-0.9-0.3-1.3-0.7-1.3-1.3s0.5-1.1,1.5-1.5c0.4-0.1,0.8-0.3,1-0.4
	c0.5-0.2,0.8-0.8,1-1.6c0.2-0.8,0.3-2.2,0.3-4.2c0-5-0.4-8.2-1.1-9.5c-0.7-1.3-2.1-2-4.1-2c-2.2,0-3.7,0.9-4.6,2.6
	c-0.9,1.7-1.4,4.6-1.4,8.7v1.4c0,1.8,0.1,3,0.3,3.6c0.2,0.6,0.5,1,1,1.2c0.2,0.1,0.4,0.2,0.7,0.3c0.9,0.3,1.4,0.7,1.4,1.3
	c0,0.7-0.4,1.2-1.3,1.5c-0.9,0.3-2.7,0.4-5.6,0.4c-2.6,0-4.3-0.1-5.2-0.4c-0.9-0.3-1.3-0.7-1.3-1.3s0.5-1.1,1.4-1.4
	c0.4-0.1,0.8-0.3,1.1-0.4c0.4-0.2,0.7-0.7,0.8-1.3s0.3-2,0.3-3.9c0-5.4-0.4-8.7-1.1-10.1c-0.8-1.4-2.1-2-4.1-2c-1,0-1.9,0.3-2.8,0.8
	s-1.6,1.3-2,2.2c-0.4,0.8-0.7,1.8-0.9,3.2c-0.2,1.4-0.3,3.7-0.3,6.8c0,1.6,0.1,2.6,0.2,3.2c0.2,0.6,0.4,1,0.9,1.2
	c0.2,0.1,0.6,0.2,1,0.4c0.9,0.3,1.4,0.8,1.4,1.4s-0.5,1.1-1.4,1.4c-0.9,0.3-2.6,0.4-5,0.4c-2.8,0-4.7-0.1-5.6-0.4
	c-0.9-0.3-1.3-0.8-1.3-1.5c0-0.6,0.5-1,1.4-1.3c0.3-0.1,0.6-0.2,0.7-0.3c0.5-0.2,0.8-0.6,1-1.2c0.2-0.6,0.3-1.5,0.3-2.8
	c0-0.3,0-0.9,0-1.7c0-0.8,0-1.5,0-2V858c0-3.1-0.1-5.1-0.2-6.1c-0.2-0.9-0.4-1.5-0.8-1.7c-0.3-0.1-0.7-0.3-1.3-0.4
	c-1.1-0.3-1.7-0.8-1.7-1.3c0-0.4,0.2-0.7,0.5-1c0.3-0.3,0.9-0.6,1.8-0.9c1.4-0.5,2.8-1,4.1-1.3s2.2-0.5,2.8-0.5
	c0.5,0,0.8,0.1,1.1,0.4c0.2,0.3,0.4,0.7,0.4,1.3V847.9z"/>
<path class="st0" d="M295.4,846.6v1.2c0,0.2,0,0.4,0,0.5s0.1,0.2,0.1,0.2c0.1,0,0.5-0.2,1.1-0.7c0.4-0.3,0.8-0.5,1.1-0.7
	c1.2-0.8,2.3-1.3,3.3-1.7c1.1-0.4,2.1-0.6,3.2-0.6c3.5,0,6.3,1.1,8.5,3.4c2.2,2.3,3.3,5.3,3.3,8.9c0,4-1.2,7.4-3.7,10
	c-2.5,2.6-5.6,3.9-9.4,3.9c-2.1,0-4.2-0.5-6.3-1.6c-0.4-0.2-0.6-0.2-0.6-0.2c-0.2,0-0.4,0.2-0.5,0.7s-0.2,1.3-0.2,2.4
	c0,1,0.1,1.8,0.2,2.5c0.1,0.7,0.3,1.1,0.5,1.4c0.2,0.2,0.8,0.4,1.6,0.7c0.5,0.1,0.8,0.2,1.1,0.3c0.2,0.1,0.4,0.3,0.6,0.5
	c0.2,0.2,0.2,0.5,0.2,0.7c0,0.6-0.5,1.1-1.6,1.3c-1.1,0.3-2.9,0.4-5.6,0.4c-2.7,0-4.5-0.1-5.4-0.4c-0.9-0.3-1.4-0.8-1.4-1.5
	c0-0.5,0.4-1,1.2-1.3c0.8-0.3,1.3-0.5,1.4-0.6c0.4-0.3,0.6-1.2,0.8-2.5s0.2-4.1,0.2-8.3v-2.1v-2c0-4.6-0.1-7.5-0.3-8.8
	s-0.5-2.1-0.9-2.3c-0.3-0.1-0.7-0.3-1.3-0.4c-1.1-0.3-1.7-0.8-1.7-1.3c0-0.4,0.2-0.8,0.5-1s0.9-0.6,1.6-0.8c1.4-0.5,2.7-0.9,3.9-1.2
	c1.2-0.3,2.2-0.4,2.8-0.4c0.5,0,0.9,0.1,1.1,0.4C295.2,845.6,295.4,846,295.4,846.6z M295.6,855.2v6.9c0,1,0,1.7,0.1,2.1
	c0.1,0.4,0.2,0.7,0.4,0.9c0.6,0.7,1.5,1.4,2.6,1.8c1.1,0.5,2.2,0.7,3.3,0.7c2.1,0,3.7-0.8,4.9-2.3c1.2-1.6,1.8-3.7,1.8-6.3
	c0-2.8-0.7-5.1-2-6.9c-1.3-1.8-3.1-2.7-5.1-2.7c-2,0-3.5,0.5-4.5,1.5C296.1,851.9,295.6,853.3,295.6,855.2z"/>
<path class="st0" d="M329,848.9l0.3,0.1c0.9-1.4,1.9-2.4,3-3.1s2.1-1.1,3.1-1.1c1.3,0,2.3,0.4,3.1,1.1c0.8,0.7,1.1,1.6,1.1,2.8
	c0,1.2-0.3,2.1-0.9,2.8c-0.6,0.7-1.4,1-2.5,1c-0.5,0-1-0.1-1.4-0.3c-0.4-0.2-0.8-0.4-1.1-0.7c-0.2-0.2-0.4-0.6-0.6-1
	c-0.2-0.4-0.4-0.7-0.6-0.7c-1.3,0-2.2,0.8-2.7,2.4s-0.8,5-0.8,10.1c0,1.5,0.1,2.6,0.3,3.3s0.6,1.2,1.1,1.4c0.3,0.1,0.6,0.2,1.1,0.3
	c1.1,0.3,1.7,0.8,1.7,1.5c0,0.6-0.5,1.1-1.5,1.4c-1,0.3-2.8,0.4-5.4,0.4c-2.8,0-4.7-0.1-5.6-0.4c-0.9-0.3-1.4-0.8-1.4-1.5
	c0-0.6,0.4-1,1.3-1.3c0.4-0.1,0.6-0.2,0.7-0.3c0.5-0.2,0.8-0.6,1-1.2c0.2-0.6,0.3-1.5,0.3-2.8c0-0.3,0-0.9,0-1.7c0-0.8,0-1.5,0-2
	V858c0-3.1-0.1-5.1-0.2-6.1c-0.2-0.9-0.4-1.5-0.8-1.7c-0.3-0.1-0.7-0.3-1.3-0.4c-1.1-0.3-1.7-0.8-1.7-1.3c0-0.4,0.2-0.7,0.5-1
	c0.3-0.3,0.9-0.6,1.8-0.9c1.3-0.5,2.5-0.8,3.7-1.1c1.2-0.3,2-0.4,2.5-0.4c0.9,0,1.5,1.1,1.8,3.4C328.9,848.6,329,848.8,329,848.9z"
	/>
<path class="st0" d="M364.4,863.5c0,1,0.1,1.7,0.3,2.1c0.2,0.5,0.5,0.8,0.8,0.8c0.2,0.1,0.5,0.1,0.9,0.2c1.2,0.3,1.8,0.7,1.8,1.3
	c0,0.8-0.6,1.5-1.9,2.2c-1.2,0.7-2.7,1-4.4,1c-0.8,0-1.7-0.4-2.6-1.3s-1.4-1.3-1.5-1.3c-0.2,0-0.6,0.2-1.2,0.6
	c-2.4,1.4-4.7,2.1-6.9,2.1c-2.7,0-4.9-0.7-6.6-2.1c-1.7-1.4-2.5-3.3-2.5-5.6c0-2.7,1.1-4.8,3.2-6.3c2.2-1.5,5.2-2.3,9-2.3
	c0.7,0,1.5,0,2.4,0.1c0.9,0.1,1.8,0.2,2.8,0.3l0-2.7c0-1.5-0.4-2.6-1.1-3.4c-0.7-0.8-1.7-1.2-3-1.2c-0.9,0-1.8,0.2-2.5,0.5
	c-0.8,0.4-1.5,0.9-2.3,1.7c-0.1,0.1-0.3,0.4-0.6,0.7c-1.1,1.3-2.3,1.9-3.6,1.9c-0.7,0-1.3-0.2-1.8-0.6c-0.4-0.4-0.7-1-0.7-1.7
	c0-1.6,1.1-2.9,3.2-4c2.2-1.1,4.9-1.6,8.3-1.6c2.1,0,3.8,0.2,5.3,0.7s2.6,1.2,3.4,2.1c0.6,0.6,0.9,1.5,1.2,2.5
	c0.2,1,0.3,2.8,0.3,5.2V863.5z M358,858.5c-0.7-0.1-1.4-0.3-2.1-0.3c-0.7-0.1-1.3-0.1-1.9-0.1c-2,0-3.6,0.4-4.7,1.2
	c-1.1,0.8-1.7,1.9-1.7,3.3c0,1.3,0.5,2.4,1.5,3.2c1,0.8,2.3,1.2,3.9,1.2c1.8,0,3.1-0.4,3.9-1.1c0.8-0.7,1.2-2,1.2-3.7L358,858.5z
	 M351.4,842.1c-0.2,0.1-0.3,0.1-0.5,0.1c-0.1,0-0.2,0-0.3,0c-0.3,0-0.6-0.3-1-0.8s-0.6-1-0.6-1.4c0-0.1,0-0.2,0.1-0.4
	c0.1-0.1,0.3-0.3,0.6-0.4l9.5-5.2c0.3-0.2,0.6-0.3,0.8-0.4s0.4-0.1,0.6-0.1c0.5,0,1.1,0.3,1.6,1c0.5,0.7,0.8,1.3,0.8,2
	c0,0.5-0.6,1-1.7,1.4l-0.1,0L351.4,842.1z"/>
<path class="st0" d="M401.6,845.5c0.5,0,0.8,0.1,0.9,0.2c0.2,0.2,0.3,0.5,0.3,0.9v0.6c0,0.4-0.1,0.8-0.3,0.9
	c-0.2,0.2-0.5,0.3-0.9,0.3h-5.7c-0.2,0-0.3,0.1-0.4,0.2c-0.1,0.1-0.2,0.3-0.2,0.6v12.6c0,2.2,0.2,3.5,0.6,4.1s1.1,0.8,2.2,0.8
	c0.6,0,1.3-0.1,2.3-0.4c0.9-0.3,1.6-0.4,1.9-0.4c0.4,0,0.7,0.1,1,0.3c0.3,0.2,0.4,0.5,0.4,0.9c0,0.9-0.8,1.8-2.4,2.7
	c-1.6,0.9-3.4,1.3-5.4,1.3c-1.2,0-2.2-0.1-3.1-0.4c-0.9-0.3-1.7-0.7-2.4-1.2c-0.7-0.5-1.1-1.3-1.4-2.2c-0.3-0.9-0.4-2.7-0.4-5.2
	v-13.5h-2.6c-0.4,0-0.7-0.1-0.8-0.2s-0.2-0.3-0.2-0.7v-0.6c0-0.5,1-1.6,2.9-3.1c0.5-0.4,0.9-0.7,1.1-0.9c0.2-0.2,0.6-0.5,1.1-0.8
	c1.9-1.5,3.2-2.3,4-2.3c0.4,0,0.7,0.1,0.9,0.2s0.3,0.3,0.3,0.6v4.7H401.6z"/>
<path class="st0" d="M426.1,869.6v-1.8c0-0.1,0-0.1,0-0.1c0,0-0.1,0-0.1,0c-0.2,0-0.5,0.2-1,0.6c-0.2,0.2-0.3,0.3-0.4,0.4
	c-0.9,0.8-1.9,1.4-3,1.8c-1.1,0.4-2.4,0.6-3.7,0.6c-1.4,0-2.7-0.2-3.9-0.7s-2.2-1.2-3.1-2c-0.9-1-1.5-2.1-1.9-3.5
	c-0.4-1.4-0.5-3.8-0.5-7.5c0-0.3,0-0.9,0-1.7s0-1.4,0-1.9v-0.5c0-1.4-0.1-2.3-0.3-2.7c-0.2-0.4-0.7-0.7-1.3-0.9
	c-0.3-0.1-0.6-0.2-1.1-0.3c-1.1-0.3-1.6-0.7-1.6-1.3c0-0.4,0.2-0.8,0.6-1.1s1.2-0.6,2.5-1c1.3-0.4,2.6-0.7,3.8-0.9
	c1.2-0.2,2.2-0.4,3-0.4c0.5,0,0.9,0.2,1.1,0.5c0.2,0.3,0.3,0.9,0.3,1.6c0,0.1,0,0.4-0.1,1c-0.2,3.1-0.3,6.2-0.3,9.4
	c0,3.4,0.4,5.8,1.2,7.1s2.1,2,4,2c2.1,0,3.7-0.8,4.6-2.5c0.9-1.7,1.4-4.6,1.4-8.7v-1.9c0-1.3-0.1-2.2-0.3-2.6
	c-0.2-0.4-0.6-0.7-1.3-0.9c-0.3-0.1-0.7-0.2-1.1-0.3c-1-0.3-1.6-0.7-1.6-1.3c0-0.4,0.2-0.7,0.5-1c0.4-0.3,1.2-0.6,2.5-1.1
	c1.3-0.4,2.5-0.7,3.7-0.9c1.2-0.2,2.2-0.4,2.9-0.4c0.6,0,1,0.2,1.2,0.5c0.2,0.3,0.3,0.9,0.3,1.7c0,0.2,0,0.6-0.1,1.4
	c-0.2,3.6-0.3,7.1-0.3,10.4c0,2.1,0,3.5,0.1,4.3s0.1,1.3,0.2,1.7c0.1,0.7,0.7,1.2,1.6,1.6h0c0.1,0,0.3,0.1,0.5,0.1
	c1.1,0.3,1.6,0.8,1.6,1.3c0,0.4-0.2,0.7-0.5,1s-0.9,0.6-1.7,0.9c-1.4,0.5-2.7,0.9-4,1.2s-2.2,0.4-2.9,0.4c-0.5,0-0.9-0.1-1.2-0.4
	C426.2,870.5,426.1,870.1,426.1,869.6z"/>
<path class="st0" d="M617.7,846.6v1.2c0,0.2,0,0.4,0,0.5c0,0.1,0.1,0.2,0.1,0.2c0.1,0,0.5-0.2,1.1-0.7c0.4-0.3,0.8-0.5,1.1-0.7
	c1.2-0.8,2.3-1.3,3.3-1.7c1.1-0.4,2.1-0.6,3.2-0.6c3.5,0,6.3,1.1,8.5,3.4c2.2,2.3,3.3,5.3,3.3,8.9c0,4-1.2,7.4-3.7,10
	c-2.5,2.6-5.6,3.9-9.4,3.9c-2.1,0-4.2-0.5-6.3-1.6c-0.4-0.2-0.6-0.2-0.6-0.2c-0.2,0-0.4,0.2-0.5,0.7c-0.1,0.5-0.2,1.3-0.2,2.4
	c0,1,0.1,1.8,0.2,2.5c0.1,0.7,0.3,1.1,0.5,1.4c0.2,0.2,0.8,0.4,1.6,0.7c0.5,0.1,0.8,0.2,1.1,0.3c0.2,0.1,0.5,0.3,0.6,0.5
	c0.2,0.2,0.2,0.5,0.2,0.7c0,0.6-0.5,1.1-1.6,1.3c-1.1,0.3-2.9,0.4-5.6,0.4c-2.7,0-4.5-0.1-5.4-0.4c-0.9-0.3-1.4-0.8-1.4-1.5
	c0-0.5,0.4-1,1.2-1.3c0.8-0.3,1.3-0.5,1.4-0.6c0.4-0.3,0.6-1.2,0.8-2.5s0.2-4.1,0.2-8.3v-2.1v-2c0-4.6-0.1-7.5-0.3-8.8
	s-0.5-2.1-0.9-2.3c-0.3-0.1-0.7-0.3-1.3-0.4c-1.1-0.3-1.7-0.8-1.7-1.3c0-0.4,0.2-0.8,0.5-1c0.3-0.3,0.9-0.6,1.6-0.8
	c1.4-0.5,2.7-0.9,3.9-1.2c1.2-0.3,2.2-0.4,2.8-0.4c0.5,0,0.9,0.1,1.1,0.4C617.5,845.6,617.7,846,617.7,846.6z M617.9,855.2v6.9
	c0,1,0,1.7,0.1,2.1c0.1,0.4,0.2,0.7,0.4,0.9c0.6,0.7,1.5,1.4,2.6,1.8c1.1,0.5,2.2,0.7,3.3,0.7c2.1,0,3.7-0.8,4.9-2.3
	c1.2-1.6,1.8-3.7,1.8-6.3c0-2.8-0.7-5.1-2-6.9c-1.3-1.8-3.1-2.7-5.1-2.7c-2,0-3.5,0.5-4.5,1.5C618.4,851.9,617.9,853.3,617.9,855.2z
	"/>
<path class="st0" d="M651.3,848.9l0.3,0.1c0.9-1.4,1.9-2.4,3-3.1c1-0.7,2.1-1.1,3.1-1.1c1.3,0,2.3,0.4,3.1,1.1
	c0.8,0.7,1.1,1.6,1.1,2.8c0,1.2-0.3,2.1-0.9,2.8c-0.6,0.7-1.4,1-2.5,1c-0.5,0-1-0.1-1.4-0.3c-0.4-0.2-0.8-0.4-1.1-0.7
	c-0.2-0.2-0.4-0.6-0.6-1c-0.2-0.4-0.4-0.7-0.6-0.7c-1.3,0-2.2,0.8-2.7,2.4s-0.8,5-0.8,10.1c0,1.5,0.1,2.6,0.3,3.3s0.6,1.2,1.1,1.4
	c0.3,0.1,0.6,0.2,1.1,0.3c1.1,0.3,1.7,0.8,1.7,1.5c0,0.6-0.5,1.1-1.5,1.4c-1,0.3-2.8,0.4-5.4,0.4c-2.8,0-4.7-0.1-5.6-0.4
	c-0.9-0.3-1.4-0.8-1.4-1.5c0-0.6,0.4-1,1.3-1.3c0.4-0.1,0.6-0.2,0.7-0.3c0.5-0.2,0.8-0.6,1-1.2c0.2-0.6,0.3-1.5,0.3-2.8
	c0-0.3,0-0.9,0-1.7c0-0.8,0-1.5,0-2V858c0-3.1-0.1-5.1-0.2-6.1c-0.2-0.9-0.4-1.5-0.8-1.7c-0.3-0.1-0.7-0.3-1.3-0.4
	c-1.1-0.3-1.7-0.8-1.7-1.3c0-0.4,0.2-0.7,0.5-1c0.3-0.3,0.9-0.6,1.8-0.9c1.3-0.5,2.5-0.8,3.7-1.1c1.2-0.3,2-0.4,2.5-0.4
	c0.9,0,1.5,1.1,1.8,3.4C651.2,848.6,651.3,848.8,651.3,848.9z"/>
<path class="st0" d="M672.7,857.6h-0.4c-1,0-1.6,0.1-1.8,0.2c-0.2,0.1-0.3,0.5-0.3,1.2c0,2.1,0.8,3.9,2.5,5.4c1.7,1.5,3.7,2.3,6,2.3
	c1,0,2-0.1,2.9-0.4c0.9-0.3,1.9-0.7,2.8-1.3c0.2-0.2,0.6-0.4,1-0.7c0.9-0.7,1.6-1,2.2-1c0.4,0,0.7,0.1,1,0.4
	c0.3,0.2,0.4,0.5,0.4,0.9c0,0.4-0.2,0.9-0.7,1.5c-0.5,0.6-1.1,1.2-1.9,1.7c-1.6,1.2-3.2,2.1-4.7,2.6c-1.5,0.5-3.1,0.8-4.9,0.8
	c-4,0-7.3-1.2-9.9-3.7c-2.6-2.4-4-5.5-4-9.1c0-3.9,1.4-7.2,4.1-9.7c2.7-2.5,6.2-3.8,10.4-3.8c3.6,0,6.4,0.9,8.5,2.8
	c2.1,1.8,3.1,4.3,3.1,7.5c0,1-0.2,1.7-0.5,2c-0.3,0.3-1.2,0.5-2.6,0.5H672.7z M672.2,854.7h9c0.7,0,1.2-0.1,1.4-0.2s0.3-0.4,0.3-0.8
	c0-1.6-0.6-3-1.8-4.1c-1.2-1.1-2.7-1.7-4.6-1.7c-1.8,0-3.2,0.6-4.4,1.7c-1.2,1.1-1.7,2.5-1.7,4.1c0,0.4,0.1,0.6,0.3,0.8
	C671,854.7,671.5,854.7,672.2,854.7z"/>
<path class="st0" d="M701.6,845.5h4c0.5,0,0.8,0.1,0.9,0.2c0.2,0.2,0.3,0.5,0.3,0.9v0.6c0,0.4-0.1,0.8-0.3,0.9
	c-0.2,0.2-0.5,0.3-0.9,0.3h-4v13c0,2.2,0.1,3.6,0.2,4.2c0.1,0.7,0.4,1.1,0.8,1.2c0.3,0.1,0.6,0.2,1.1,0.4c1.1,0.3,1.6,0.8,1.6,1.5
	c0,0.6-0.5,1.1-1.4,1.3c-0.9,0.2-2.7,0.4-5.4,0.4s-4.5-0.1-5.4-0.4c-0.9-0.3-1.4-0.7-1.4-1.4c0-0.5,0.4-0.9,1.3-1.2
	c0.3-0.1,0.6-0.2,0.7-0.3c0.4-0.2,0.8-0.6,0.9-1.2c0.2-0.5,0.3-1.5,0.3-3v-2.4v-12.2h-3.1c-0.4,0-0.7-0.1-0.9-0.3
	c-0.2-0.2-0.3-0.5-0.3-1v-0.6c0-0.4,0.1-0.7,0.3-0.9c0.2-0.2,0.5-0.3,0.9-0.3h2.9c-0.1-0.7-0.2-1.4-0.3-2c-0.1-0.6-0.1-1.2-0.1-1.8
	c0-2.6,0.9-4.5,2.6-6c1.7-1.4,4.1-2.1,7.1-2.1c2.1,0,3.8,0.4,5.1,1.3c1.3,0.9,2,2,2,3.3c0,0.8-0.2,1.4-0.7,1.8s-1.2,0.6-2.1,0.6
	c-0.6,0-1.1-0.1-1.6-0.4c-0.5-0.2-0.9-0.6-1.2-1c-0.1-0.2-0.3-0.5-0.5-0.9c-0.7-1.2-1.6-1.8-2.6-1.8c-0.7,0-1.3,0.2-1.7,0.6
	c-0.4,0.4-0.7,0.9-0.7,1.6c0,0.4,0.2,1.3,0.6,2.8S701.6,844.3,701.6,845.5z"/>
<path class="st0" d="M717.9,857.6h-0.4c-1,0-1.6,0.1-1.8,0.2c-0.2,0.1-0.3,0.5-0.3,1.2c0,2.1,0.8,3.9,2.5,5.4c1.7,1.5,3.7,2.3,6,2.3
	c1,0,2-0.1,2.9-0.4c0.9-0.3,1.9-0.7,2.8-1.3c0.2-0.2,0.6-0.4,1-0.7c0.9-0.7,1.6-1,2.2-1c0.4,0,0.7,0.1,1,0.4s0.4,0.5,0.4,0.9
	c0,0.4-0.2,0.9-0.7,1.5c-0.5,0.6-1.1,1.2-1.9,1.7c-1.6,1.2-3.2,2.1-4.7,2.6c-1.5,0.5-3.1,0.8-4.9,0.8c-4,0-7.3-1.2-9.9-3.7
	c-2.6-2.4-4-5.5-4-9.1c0-3.9,1.4-7.2,4.1-9.7c2.7-2.5,6.2-3.8,10.4-3.8c3.6,0,6.4,0.9,8.5,2.8s3.1,4.3,3.1,7.5c0,1-0.2,1.7-0.5,2
	c-0.3,0.3-1.2,0.5-2.6,0.5H717.9z M717.4,854.7h9c0.7,0,1.2-0.1,1.4-0.2c0.2-0.1,0.3-0.4,0.3-0.8c0-1.6-0.6-3-1.8-4.1
	c-1.2-1.1-2.7-1.7-4.6-1.7c-1.8,0-3.2,0.6-4.4,1.7s-1.7,2.5-1.7,4.1c0,0.4,0.1,0.6,0.3,0.8S716.7,854.7,717.4,854.7z"/>
<path class="st0" d="M747.2,848.9l0.3,0.1c0.9-1.4,1.9-2.4,3-3.1c1-0.7,2.1-1.1,3.1-1.1c1.3,0,2.3,0.4,3.1,1.1
	c0.8,0.7,1.1,1.6,1.1,2.8c0,1.2-0.3,2.1-0.9,2.8c-0.6,0.7-1.4,1-2.5,1c-0.5,0-1-0.1-1.4-0.3c-0.4-0.2-0.8-0.4-1.1-0.7
	c-0.2-0.2-0.4-0.6-0.6-1c-0.2-0.4-0.4-0.7-0.6-0.7c-1.3,0-2.2,0.8-2.7,2.4s-0.8,5-0.8,10.1c0,1.5,0.1,2.6,0.3,3.3s0.6,1.2,1.1,1.4
	c0.3,0.1,0.6,0.2,1.1,0.3c1.1,0.3,1.7,0.8,1.7,1.5c0,0.6-0.5,1.1-1.5,1.4c-1,0.3-2.8,0.4-5.4,0.4c-2.8,0-4.7-0.1-5.6-0.4
	c-0.9-0.3-1.4-0.8-1.4-1.5c0-0.6,0.4-1,1.3-1.3c0.4-0.1,0.6-0.2,0.7-0.3c0.5-0.2,0.8-0.6,1-1.2c0.2-0.6,0.3-1.5,0.3-2.8
	c0-0.3,0-0.9,0-1.7c0-0.8,0-1.5,0-2V858c0-3.1-0.1-5.1-0.2-6.1c-0.2-0.9-0.4-1.5-0.8-1.7c-0.3-0.1-0.7-0.3-1.3-0.4
	c-1.1-0.3-1.7-0.8-1.7-1.3c0-0.4,0.2-0.7,0.5-1c0.3-0.3,0.9-0.6,1.8-0.9c1.3-0.5,2.5-0.8,3.7-1.1c1.2-0.3,2-0.4,2.5-0.4
	c0.9,0,1.5,1.1,1.8,3.4C747.1,848.6,747.2,848.8,747.2,848.9z"/>
<path class="st0" d="M768.6,856v0.1c-0.1,2.8-0.1,4.9-0.1,6.2c0,1.6,0.1,2.7,0.2,3.4c0.2,0.7,0.4,1.1,0.9,1.3c0.2,0.1,0.6,0.2,1,0.4
	c0.9,0.3,1.4,0.8,1.4,1.4s-0.5,1.1-1.4,1.4c-0.9,0.3-2.6,0.4-5,0.4c-2.8,0-4.7-0.1-5.6-0.4c-0.9-0.3-1.4-0.8-1.4-1.5
	c0-0.6,0.5-1,1.4-1.3c0.3-0.1,0.6-0.2,0.7-0.3c0.5-0.2,0.8-0.6,1-1.2c0.2-0.6,0.3-1.5,0.3-2.8c0-0.3,0-0.9,0-1.7c0-0.8,0-1.5,0-2
	v-2.6c0-2.6-0.1-4.4-0.2-5.2c-0.1-0.8-0.4-1.3-0.8-1.5c-0.3-0.1-0.7-0.3-1.3-0.4c-1.1-0.3-1.7-0.8-1.7-1.3c0-0.4,0.2-0.7,0.5-1
	s0.9-0.6,1.7-0.9c1.4-0.5,2.8-0.9,4.2-1.2c1.4-0.3,2.4-0.5,3-0.5c0.5,0,0.9,0.2,1.1,0.5c0.2,0.3,0.3,0.9,0.3,1.6c0,0.6,0,1.1,0,1.5
	c0,0.4,0,0.8,0,1.1L768.6,856z M760.4,837.3c0-1,0.4-1.8,1.3-2.4c0.9-0.7,1.9-1,3.2-1c1.2,0,2.2,0.3,3,0.9c0.8,0.6,1.2,1.4,1.2,2.3
	c0,0.9-0.4,1.7-1.3,2.3c-0.9,0.6-1.9,1-3.2,1c-1.2,0-2.2-0.3-3-0.9C760.8,838.9,760.4,838.1,760.4,837.3z"/>
<path class="st0" d="M795.7,869.3V868c0-0.2,0-0.4-0.1-0.5c0-0.1-0.1-0.2-0.1-0.2c-0.1,0-0.4,0.2-0.9,0.5c-0.5,0.3-0.9,0.6-1.2,0.8
	c-1.1,0.8-2.2,1.3-3.3,1.7s-2.2,0.5-3.3,0.5c-3.5,0-6.3-1.1-8.5-3.4s-3.3-5.2-3.3-8.9c0-4.1,1.3-7.4,3.8-10c2.5-2.6,5.7-3.9,9.7-3.9
	c1.9,0,3.9,0.4,5.9,1.3c0.4,0.2,0.6,0.2,0.7,0.2c0.1,0,0.2-0.1,0.3-0.3s0.1-0.5,0.1-1v-3c0-1.2-0.1-2-0.4-2.5s-0.7-0.8-1.4-1
	c-0.2,0-0.4-0.1-0.7-0.2c-1.1-0.3-1.7-0.7-1.7-1.3c0-0.5,0.2-0.8,0.7-1.2c0.4-0.3,1.4-0.7,2.8-1.2c1.1-0.4,2.1-0.6,3.1-0.8
	c1-0.2,1.8-0.3,2.6-0.3c0.6,0,1.1,0.2,1.3,0.5c0.3,0.3,0.4,0.9,0.4,1.6c0,0.1,0,0.6-0.1,1.3c-0.2,5-0.3,10.2-0.3,15.6
	s0.1,8.9,0.2,10.6s0.3,2.5,0.6,2.8c0.3,0.2,0.9,0.4,1.9,0.6s1.5,0.6,1.5,1.2c0,0.8-1.3,1.6-4,2.4l-0.3,0.1c-0.8,0.2-1.6,0.4-2.5,0.6
	s-1.6,0.2-2.1,0.2c-0.5,0-0.9-0.1-1.1-0.4S795.7,869.8,795.7,869.3z M795.5,860.6v-6.9c0-1-0.1-1.7-0.1-2.1s-0.2-0.7-0.4-0.9
	c-0.6-0.7-1.5-1.3-2.6-1.8c-1.1-0.5-2.2-0.7-3.4-0.7c-2.1,0-3.7,0.8-4.9,2.3c-1.2,1.5-1.8,3.6-1.8,6.3c0,2.8,0.7,5.1,2,6.9
	s3.1,2.7,5.1,2.7c2,0,3.5-0.5,4.5-1.5C795,863.9,795.5,862.5,795.5,860.6z"/>
<path class="st0" d="M821.6,871.1c-4,0-7.3-1.2-10-3.7c-2.6-2.5-4-5.6-4-9.4c0-3.8,1.4-7,4.2-9.5s6.2-3.8,10.4-3.8
	c4,0,7.3,1.2,9.8,3.5s3.8,5.4,3.8,9.1c0,3.9-1.4,7.2-4.1,9.8C829.1,869.8,825.7,871.1,821.6,871.1z M814.8,855.8
	c0,3.3,0.8,6.1,2.3,8.4c1.6,2.2,3.5,3.4,5.7,3.4c1.8,0,3.3-0.7,4.4-2.1c1.1-1.4,1.7-3.2,1.7-5.5c0-3.3-0.8-6.1-2.4-8.3
	c-1.6-2.2-3.5-3.4-5.7-3.4c-1.8,0-3.3,0.7-4.4,2S814.8,853.6,814.8,855.8z"/>
<path class="st0" d="M864.3,857.6h-0.4c-1,0-1.6,0.1-1.8,0.2c-0.2,0.1-0.3,0.5-0.3,1.2c0,2.1,0.8,3.9,2.5,5.4c1.7,1.5,3.7,2.3,6,2.3
	c1,0,2-0.1,2.9-0.4c0.9-0.3,1.9-0.7,2.8-1.3c0.2-0.2,0.6-0.4,1-0.7c0.9-0.7,1.6-1,2.2-1c0.4,0,0.7,0.1,1,0.4
	c0.3,0.2,0.4,0.5,0.4,0.9c0,0.4-0.2,0.9-0.7,1.5c-0.5,0.6-1.1,1.2-1.9,1.7c-1.6,1.2-3.2,2.1-4.7,2.6c-1.5,0.5-3.1,0.8-4.9,0.8
	c-4,0-7.3-1.2-9.9-3.7c-2.6-2.4-4-5.5-4-9.1c0-3.9,1.4-7.2,4.1-9.7c2.7-2.5,6.2-3.8,10.4-3.8c3.6,0,6.4,0.9,8.5,2.8s3.1,4.3,3.1,7.5
	c0,1-0.2,1.7-0.5,2c-0.3,0.3-1.2,0.5-2.6,0.5H864.3z M863.7,854.7h9c0.7,0,1.2-0.1,1.4-0.2s0.3-0.4,0.3-0.8c0-1.6-0.6-3-1.8-4.1
	c-1.2-1.1-2.7-1.7-4.6-1.7c-1.8,0-3.2,0.6-4.4,1.7s-1.7,2.5-1.7,4.1c0,0.4,0.1,0.6,0.3,0.8C862.6,854.7,863,854.7,863.7,854.7z"/>
<path class="st0" d="M894.8,847.8c0.1-0.1,0.3-0.3,0.6-0.5c2-1.7,4.2-2.6,6.5-2.6c1.3,0,2.6,0.3,3.9,0.8c1.2,0.5,2.3,1.2,3.1,2.1
	c0.9,0.9,1.5,2,1.8,3.3c0.4,1.3,0.5,3.3,0.5,6v3.4c0,0.4,0,1,0,1.6c0,0.7,0,1.2,0,1.4c0,1.2,0.1,2,0.3,2.5c0.2,0.5,0.5,0.9,1,1.1
	c0.2,0.1,0.4,0.2,0.7,0.3c0.9,0.3,1.4,0.7,1.4,1.3c0,0.7-0.4,1.2-1.3,1.5s-2.7,0.4-5.6,0.4c-2.6,0-4.3-0.1-5.2-0.4
	c-0.9-0.3-1.3-0.7-1.3-1.3s0.5-1.1,1.4-1.4c0.5-0.2,0.8-0.3,1-0.4c0.4-0.2,0.7-0.7,0.9-1.4c0.2-0.7,0.3-2,0.3-3.8
	c0-5.4-0.4-8.7-1.1-10.1s-2.1-2-4.1-2c-1,0-1.9,0.3-2.8,0.8c-0.9,0.5-1.6,1.3-2.1,2.2c-0.4,0.7-0.7,1.7-0.9,3.1s-0.2,3.6-0.2,7
	c0,1.6,0.1,2.7,0.2,3.3c0.2,0.5,0.4,0.9,0.8,1.1c0.2,0.1,0.6,0.2,1,0.4c0.9,0.3,1.4,0.8,1.4,1.4s-0.5,1.1-1.4,1.4
	c-0.9,0.3-2.6,0.4-5,0.4c-2.8,0-4.7-0.1-5.6-0.4c-0.9-0.3-1.4-0.8-1.4-1.5c0-0.6,0.5-1,1.4-1.3c0.3-0.1,0.6-0.2,0.7-0.3
	c0.5-0.2,0.8-0.6,1-1.2c0.2-0.6,0.3-1.5,0.3-2.8c0-0.3,0-0.9,0-1.7c0-0.8,0-1.5,0-2v-2.6c0-2.6-0.1-4.4-0.2-5.2
	c-0.1-0.8-0.4-1.3-0.8-1.5c-0.3-0.1-0.7-0.3-1.3-0.4c-1.1-0.3-1.7-0.8-1.7-1.3c0-0.4,0.2-0.7,0.5-1s0.9-0.6,1.7-0.9
	c1.4-0.5,2.7-0.9,4-1.2s2.3-0.4,2.9-0.4c0.5,0,0.9,0.1,1.1,0.4c0.2,0.3,0.3,0.7,0.3,1.2v1.7c0,0.1,0,0.2,0,0.2c0,0,0.1,0.1,0.2,0.1
	c0,0,0.1,0,0.1,0c0.1,0,0.1,0,0.1-0.1L894.8,847.8z"/>
<path class="st0" d="M518.7,848c0.9,0.1,4.4-0.2,5.1,3.2c3.3-3.1,2.6-7.3,0.3-8.9c-3.9-2.8-8.1-0.2-8.5,2.6
	C515.4,846.8,516.4,847.8,518.7,848z M599,843.6c-2.2-0.1-5.4,3.5-8,3.5c-1.7,0-1.9-1.3-0.8-3.5c3.8-8.2-0.8-7.9-1.8-7.2
	c0,0,3.3-5.9-2.5-5.8c-7.2,0-13.6,6.1-17,15.1c-1.2,3.1-3.9,9.6-6.8,10.4c-2.7,0.7-2.7-2.8-4.4-3.5c11.5-7.8,11.7-14.1,9.9-16.2
	c-1.6-1.9-7.1-2.5-13.9,4.5c1.7-6.2,6.3-10,7.5-16.3c0.6-3.7-2.1-7.5-7.3-1.4c-3.5,4.1-5.3,11.7-8.6,21.3c-2,5.9-6,16.4-9.6,16.4
	c-1.6,0-2-1.4-1.5-5.2c0.9-7.5,7-16.1,9.1-22.3c1.6-4.1,0-6.6-1.8-7c-2.4-0.5-5.8,1.8-8.3,8c-2,4.3-3.6,10.2-4.8,16.9
	c-1.1,5.6-5.5,16.6-9.8,16c-1.6-0.2,0-4.2,2-8.2c1.7-3.4,3-7.5-0.5-7.5c-5.4,0-9.4,11.2-10.1,19.5c-0.3,4.1-0.5,8.8,2.7,8.7
	c3.9,0,8.9-4.1,13.6-11.1c0.3,3.9,5.4,9.2,15-4.9c0.1,2.1,0.6,5.3,2.2,5.4c0,0,1.5,0.4,3-3.1c1.5-3.5,3.2-7.9,3.6-8.7
	c0.8-2,2.3-2.3,2.5,1c0.1,3.4,1.1,6,3.8,6c5.5,0,10.2-5,11.6-6.9c0.8,3,7.5,4,14.8-4.9c0.3,2.3,2.4,5.8,11.6-1.4
	C600.1,846.9,600.6,843.6,599,843.6z M552.6,849.3c-0.2,0-0.6-0.2-0.4-0.6c0.7-1.9,1.9-3.5,3.4-4.8c1.3-1.1,2.8-1.8,3.8-1.8
	c1,0,1.6,0.6,1.5,1.6c0,0.8-0.5,1.7-1.4,2.6C556.3,849.3,552.9,849.3,552.6,849.3z M583.9,839.7c-3.1,4.9-2,5.4-4.3,8.9
	c-1.9,2.8-4.4,3.5-5.4,2.1c-1-1.5,0-4.7,2.2-7.2C578.5,841,585.4,837.5,583.9,839.7z M504.1,871.9c0.9-16.4,9.8-30,10.1-35.7
	c0.1-2.3-1.1-4.1-3.9-4c-4.7,0.2-13,6.9-17.2,15.3c-2.3-7.1-7.9-2.9-10.5,0.2c0.5-13.3-3.6-14.4-5.9-14.3
	c-7.4,0.3-15.1,10.3-19.3,17.5c-3.9,6.7-13.7,26.6-5.9,27.8c1.9,0.3,3.9-1.9,5.3-7c5.1-19.3,11.2-23.7,13.7-23.5
	c6.6,0.5-1.9,25-4.8,33.6c-1.6,4.6-3,12,2.2,11.8c5.9-0.3,8.3-15,9.7-23c1.6-8.8,3.8-11.6,6.1-11.4c2.6,0.3,1.5,5.6-0.2,10.6
	c-1.6,5.1-6.9,17.7-0.6,18.3c6.4,0.2,6.1-11.3,7.8-18.6c2.7-11,5.6-18.4,8.8-17.7c3.9,0.8-5.3,15.2-5.9,26.6
	c-0.5,8.8,3.5,15.3,9.3,12.8C509,888,503.6,880.7,504.1,871.9z"/>
</svg>
