<?xml version="1.0" encoding="UTF-8"?>
<svg id="Layer_2" data-name="Layer 2" xmlns="http://www.w3.org/2000/svg" viewBox="0 0 111.55 111.55">
  <defs>
    <style>
      .cls-1 {
        fill: none;
      }

      .cls-2 {
        fill: #fff;
      }
    </style>
  </defs>
  <g id="Capa_1" data-name="Capa 1">
    <g>
      <path class="cls-1" d="m58.27,79.08c-.54,0-1.01.2-1.39.57-.38.38-.57.84-.57,1.38s.19,1,.57,1.38c.38.38.85.57,1.39.57s1-.19,1.38-.57c.38-.38.58-.84.58-1.38s-.19-1-.58-1.38c-.38-.38-.85-.57-1.38-.57Z"/>
      <path class="cls-1" d="m77.63,57.5c-.13,2.39,1.78,2.9,2.84,2.93,2.19.05,3.3-1.59,3.43-2.7l.65-5.73c-3.06.88-6.76,2.39-6.93,5.51Z"/>
      <path class="cls-1" d="m57.55,43.71c-3.3-.06-5.02,2.66-5.51,5.44l8.79-1.07c.27-4.35-2.59-4.39-3.27-4.38Z"/>
      <path class="cls-1" d="m40.16,78.96c-.41,0-.8.13-1.15.4-.43.32-.69.76-.77,1.28-.05.32-.02.62.09.91l2.98-2.23c-.25-.17-.54-.28-.85-.33-.1-.02-.19-.02-.29-.02Z"/>
      <path class="cls-1" d="m75.53,79.62c-.35.36-.52.8-.52,1.31s.18.95.52,1.31c.35.36.77.54,1.27.54s.92-.18,1.27-.54c.33-.35.51-.78.52-1.27h0v-1.69h-1.64c-.5,0-1.17.08-1.41.33Z"/>
      <path class="cls-1" d="m79.36,14.84c0-1.12.21-2.2.57-3.2-7.19-3.96-15.45-6.22-24.25-6.22C27.89,5.42,5.34,27.97,5.34,55.78s22.55,50.36,50.35,50.36,50.36-22.54,50.36-50.36c0-12.61-4.65-24.13-12.31-32.97-1.44.9-3.14,1.43-4.96,1.43-5.19,0-9.41-4.22-9.41-9.4Zm-20.02,23.89c8.65.08,9.75,7.91,9.41,10.23-.32,2.04-1.72,2.2-2.59,2.33l-14.21,1.66c-.47,5.04,3.25,5.5,6.07,5.4,1.88-.07,3.6-.57,5.45-1.47,1.56-.72,1.87-1.13,2.4-1.14,1-.01,1.5,1.06,1.04,1.96-.57,1.07-4.49,6.89-11.4,6.87-9.19-.02-11.8-6.73-10.79-13.19,1.46-9.36,8.77-12.71,14.63-12.67Zm-32.42,25.22l-7.3-27.89c-.1-.58-.14-.66-.11-.85.07-.52.5-.73,1.04-.74l6.16.02c.8-.02,1.11.05,1.22.93l4.47,19.01,7.52-18.92c.44-.95.69-1,1.54-1.02h5.39c.35-.02.94-.03.85.68-.03.25-.11.45-.3.86l-11.81,27.26c-.36.77-.5.92-1.2.99l-6.43.54c-.66,0-.82-.18-1.05-.87Zm9.6,19.2c-.61.61-1.36.92-2.23.92s-1.62-.31-2.23-.93c-.61-.61-.92-1.36-.92-2.22s.31-1.62.93-2.23c.62-.62,1.36-.93,2.23-.93s1.61.31,2.22.92c.14.14.26.29.37.44l-.88.88h0c-.09-.19-.2-.34-.34-.47-.38-.38-.84-.57-1.38-.57s-1,.19-1.38.57c-.38.38-.58.85-.58,1.38,0,.53.19.99.58,1.38.39.38.85.58,1.39.58s1.01-.19,1.38-.57c.13-.13.24-.28.33-.46v-.02s.88.88.88.88c-.11.16-.23.31-.36.44Zm3.38-.3c.53.07,1.01-.05,1.45-.38.26-.19.45-.42.58-.68l.16.16.55.55.16.16c-.2.29-.44.54-.74.77-.56.42-1.19.63-1.85.63-.15,0-.32-.01-.48-.04-.86-.12-1.55-.54-2.07-1.23-.52-.69-.72-1.48-.6-2.34.12-.85.54-1.55,1.23-2.07.69-.52,1.48-.72,2.34-.6.85.12,1.55.54,2.07,1.23.12.16.21.3.28.43l.04.09-3.97,2.97c.24.18.53.29.85.34Zm9.16,1.22h-1.25v-3.45c0-.43-.16-.79-.48-1.1-.33-.31-.71-.46-1.16-.46s-.83.15-1.16.46c-.32.31-.48.66-.48,1.1v3.45h-1.25v-3.45c0-.76.28-1.41.85-1.95.56-.54,1.25-.81,2.05-.81s1.48.27,2.04.81c.56.53.85,1.19.85,1.95v3.45Zm5.68-.92c-.61.61-1.36.92-2.23.92s-1.62-.31-2.24-.93c-.61-.61-.92-1.36-.92-2.22,0-.87.31-1.62.93-2.23.62-.62,1.36-.93,2.23-.93s1.61.31,2.22.92c.14.14.26.29.36.44l-.87.88h0c-.09-.19-.21-.34-.34-.47-.38-.38-.84-.57-1.37-.57s-1,.19-1.38.57c-.38.38-.58.85-.58,1.38s.19.99.58,1.38c.38.38.85.58,1.39.58s1-.19,1.38-.57c.13-.13.24-.28.33-.46v-.02s.88.88.88.88c-.11.16-.23.31-.37.44Zm5.75.1c-.62.61-1.37.93-2.23.93s-1.62-.31-2.23-.93c-.61-.61-.93-1.36-.93-2.23s.31-1.61.93-2.23c.61-.61,1.36-.92,2.23-.92s1.61.31,2.23.92c.61.61.92,1.37.92,2.23s-.31,1.61-.92,2.23Zm6.94-.85c-.05.48-.21.84-.51,1.12-.39.36-.86.54-1.4.54h-3.37v-1.23h3.37c.21,0,.39-.07.53-.21.11-.1.13-.22.14-.38,0-.15-.03-.26-.14-.36-.15-.14-.32-.21-.53-.21h-1.94c-.54,0-1.01-.19-1.4-.55-.08-.07-.15-.15-.21-.24-.17-.24-.27-.53-.3-.87v-.3c.04-.47.21-.83.51-1.11.39-.37.86-.55,1.4-.55h3.22v1.23h-3.22c-.21,0-.39.07-.54.21-.11.11-.13.21-.14.37,0,.15.03.26.14.37.15.14.33.21.54.21h1.94c.55,0,1.01.18,1.4.55.08.07.15.15.21.23.18.24.27.53.31.87v.3Zm6.04-1.21c0,.79-.29,1.48-.85,2.04-.56.56-1.25.84-2.05.84s-1.49-.28-2.04-.84c-.57-.56-.85-1.25-.85-2.04v-3.13h1.34v3.13c0,.43.15.78.46,1.08.31.3.67.45,1.1.45s.79-.15,1.1-.45c.31-.3.46-.66.46-1.08v-3.13h1.34v3.13Zm6.35-.26c0,.86-.3,1.61-.89,2.22-.59.61-1.31.92-2.14.92s-1.55-.31-2.14-.92c-.59-.61-.89-1.36-.89-2.22s.3-1.61.89-2.22c.4-.41.91-.63,1.5-.63h2.43v-.35h0c0-.05,0-.14,0-.32v-1.76h1.24v5.28Zm12.88-35.48l-1.71,13.24c-.15,1.19-.36,2.31-1.2,3.17-1.05,1.1-3.94,2.98-9.78,3.19-2.28.08-10.54.01-10.32-6.83.2-6.26,8.05-7.88,15.23-9.51l.27-2.48c.18-1.49.34-3.52-2.21-3.43-2.01.07-2.79,1.46-3.22,2.28-.73,1.36-1.5,2.75-3.97,2.83-2.38.08-3.64-1.36-3.32-2.91.51-2.48,3.25-5.95,11.48-6.24,1.92-.07,4.77.01,6.47.88,2.72,1.53,2.46,4.19,2.29,5.8Z"/>
      <path class="cls-1" d="m88.77,19.59c.57,0,1.1-.12,1.61-.3,1.83-.66,3.15-2.4,3.15-4.46,0-2.63-2.13-4.76-4.76-4.76-2.41,0-4.38,1.79-4.69,4.11-.03.21-.07.43-.07.65,0,2.62,2.13,4.76,4.76,4.76Z"/>
      <path class="cls-2" d="m35.6,63.29l11.81-27.26c.2-.41.27-.61.3-.86.09-.72-.5-.7-.85-.69h-5.39c-.85.03-1.1.08-1.54,1.03l-7.52,18.92-4.47-19.01c-.11-.88-.42-.95-1.22-.93l-6.16-.02c-.54.01-.98.22-1.04.74-.03.19,0,.27.11.85l7.3,27.89c.23.68.39.87,1.05.87l6.43-.54c.7-.06.84-.22,1.2-.99Z"/>
      <path class="cls-2" d="m83.95,38.76c-8.24.29-10.98,3.76-11.48,6.24-.32,1.55.94,2.99,3.32,2.91,2.48-.09,3.24-1.47,3.97-2.83.43-.83,1.21-2.21,3.22-2.28,2.54-.09,2.38,1.95,2.21,3.43l-.27,2.48c-7.19,1.63-15.04,3.25-15.23,9.51-.22,6.85,8.05,6.91,10.32,6.83,5.84-.2,8.73-2.09,9.78-3.19.84-.86,1.05-1.99,1.2-3.17l1.71-13.24c.18-1.61.44-4.28-2.29-5.8-1.7-.87-4.55-.95-6.47-.88Zm-.05,18.96c-.13,1.11-1.24,2.76-3.43,2.7-1.06-.02-2.97-.54-2.84-2.93.17-3.12,3.86-4.62,6.93-5.51l-.65,5.73Z"/>
      <path class="cls-2" d="m55.5,64.58c6.91.02,10.83-5.8,11.4-6.87.47-.91-.03-1.98-1.04-1.96-.54,0-.85.42-2.4,1.14-1.85.89-3.57,1.4-5.45,1.47-2.82.1-6.54-.36-6.07-5.4l14.21-1.66c.87-.13,2.27-.29,2.59-2.33.34-2.32-.76-10.16-9.41-10.23-5.87-.04-13.17,3.31-14.63,12.67-1.01,6.46,1.6,13.17,10.79,13.19Zm2.06-20.88c.69-.01,3.55.03,3.27,4.38l-8.79,1.07c.49-2.78,2.22-5.5,5.51-5.44Z"/>
      <path class="cls-2" d="m46.18,77.86c-.8,0-1.49.27-2.05.81-.56.53-.85,1.19-.85,1.95v3.45h1.25v-3.45c0-.43.16-.79.48-1.1.33-.31.71-.46,1.16-.46s.83.15,1.16.46c.32.31.48.66.48,1.1v3.45h1.25v-3.45c0-.76-.28-1.41-.85-1.95-.56-.54-1.25-.81-2.04-.81Z"/>
      <path class="cls-2" d="m72.15,81.19c0,.43-.15.78-.46,1.08-.31.3-.67.45-1.1.45s-.79-.15-1.1-.45c-.31-.3-.46-.66-.46-1.08v-3.13h-1.34v3.13c0,.79.29,1.48.85,2.04.56.56,1.25.84,2.04.84s1.48-.28,2.05-.84c.56-.56.85-1.25.85-2.04v-3.13h-1.34v3.13Z"/>
      <path class="cls-2" d="m58.27,77.88c-.87,0-1.62.31-2.23.92-.61.61-.93,1.37-.93,2.23s.31,1.61.93,2.23c.61.61,1.36.93,2.23.93s1.61-.31,2.23-.93c.61-.62.92-1.36.92-2.23s-.31-1.61-.92-2.23c-.62-.61-1.37-.92-2.23-.92Zm1.38,4.53c-.38.38-.85.57-1.38.57s-1.01-.19-1.39-.57c-.38-.38-.57-.84-.57-1.38s.19-1,.57-1.38c.38-.38.85-.57,1.39-.57s1,.2,1.38.57c.38.38.58.84.58,1.38s-.19,1-.58,1.38Z"/>
      <path class="cls-2" d="m36,81.85c-.09.17-.2.33-.33.46-.38.38-.84.57-1.38.57s-1-.2-1.39-.58c-.38-.38-.57-.85-.58-1.38,0-.53.19-1,.58-1.38.38-.38.84-.57,1.38-.57s1,.19,1.38.57c.13.13.24.28.34.45h0s.88-.86.88-.86c-.11-.15-.23-.3-.37-.44-.61-.61-1.36-.92-2.22-.92s-1.61.31-2.23.93c-.62.61-.93,1.36-.93,2.23s.31,1.61.92,2.22c.61.62,1.37.93,2.23.93s1.62-.31,2.23-.92c.14-.13.25-.28.36-.44l-.88-.88v.02Z"/>
      <path class="cls-2" d="m54.23,81.85c-.09.17-.2.33-.33.46-.38.38-.84.57-1.38.57s-1.01-.2-1.39-.58c-.38-.38-.58-.85-.58-1.38s.19-1,.58-1.38c.38-.38.84-.57,1.38-.57s1,.19,1.37.57c.13.13.25.28.34.45h0s.87-.86.87-.86c-.11-.15-.23-.3-.36-.44-.61-.61-1.36-.92-2.22-.92s-1.61.31-2.23.93c-.61.61-.93,1.36-.93,2.23,0,.86.31,1.61.92,2.22.62.62,1.37.93,2.24.93s1.62-.31,2.23-.92c.13-.13.26-.28.37-.44l-.88-.88v.02Z"/>
      <path class="cls-2" d="m42.98,79.45c-.07-.13-.16-.27-.28-.43-.52-.69-1.22-1.11-2.07-1.23-.86-.12-1.64.08-2.34.6-.7.52-1.11,1.22-1.23,2.07-.12.85.08,1.64.6,2.34.52.7,1.22,1.11,2.07,1.23.16.02.33.04.48.04.67,0,1.29-.21,1.85-.63.3-.23.55-.48.74-.77l-.16-.16-.55-.55-.16-.16c-.13.26-.32.49-.58.68-.43.33-.92.45-1.45.38-.32-.05-.6-.16-.85-.34l3.97-2.97-.04-.09Zm-4.65,2.09c-.1-.29-.13-.59-.09-.91.08-.52.33-.95.77-1.28.35-.26.74-.4,1.15-.4.1,0,.19,0,.29.02.32.05.6.16.85.33l-2.98,2.23Z"/>
      <path class="cls-2" d="m66.92,81c-.39-.37-.86-.55-1.4-.55h-1.94c-.21,0-.39-.07-.54-.21-.11-.1-.13-.22-.14-.37,0-.16.03-.27.14-.37.15-.14.32-.21.54-.21h3.22v-1.23h-3.22c-.54,0-1.01.18-1.4.55-.3.28-.47.64-.51,1.11v.3c.03.34.13.63.3.87.06.09.13.16.21.24.39.36.86.55,1.4.55h1.94c.21,0,.39.07.53.21.11.1.13.22.14.36,0,.16-.03.28-.14.38-.15.14-.32.21-.53.21h-3.37v1.23h3.37c.55,0,1.01-.18,1.4-.54.3-.28.47-.64.51-1.12v-.3c-.03-.34-.13-.63-.31-.87-.06-.08-.13-.16-.21-.23Z"/>
      <path class="cls-2" d="m78.59,77.41c0,.17,0,.27,0,.32h0v.35h-2.43c-.59,0-1.1.22-1.5.64-.59.61-.89,1.36-.89,2.22s.3,1.61.89,2.22c.59.61,1.31.92,2.14.92s1.55-.31,2.14-.92c.59-.61.89-1.36.89-2.22v-5.28h-1.24v1.76Zm0,3.55h0c-.01.5-.19.93-.52,1.28-.35.36-.77.54-1.27.54s-.92-.18-1.27-.54c-.35-.36-.52-.8-.52-1.31s.18-.95.52-1.31c.24-.25.91-.33,1.41-.33h1.64v1.68Z"/>
      <path class="cls-2" d="m89.73,5.48c.75.08,1.46.25,2.15.49-.69-.24-1.4-.41-2.15-.49Z"/>
      <path class="cls-2" d="m107.17,34.06c-2.4-5.67-5.7-10.85-9.8-15.44.25-.57.45-1.16.58-1.78,0-.02,0-.03.01-.05.06-.28.1-.56.14-.84,0-.04.02-.09.02-.13.03-.32.05-.64.05-.97,0,0,0-.02,0-.02,0-.97-.15-1.91-.42-2.79-.88-2.84-3.08-5.09-5.87-6.07-.69-.24-1.4-.41-2.15-.49-.32-.03-.64-.05-.96-.05-.47,0-.92.04-1.37.11-.09.01-.17.02-.26.04-.44.08-.88.18-1.3.32-.03,0-.06.02-.09.03-.44.15-.86.33-1.27.54,0,0-.02,0-.03.01-.42.22-.83.47-1.21.75,0,0,0,0-.01,0-1.85-1.05-3.77-2.02-5.76-2.85-6.88-2.91-14.18-4.39-21.72-4.39s-14.83,1.48-21.71,4.39c-6.64,2.81-12.61,6.83-17.73,11.95-5.12,5.12-9.14,11.09-11.95,17.73C1.48,40.94,0,48.25,0,55.78s1.48,14.83,4.39,21.72c2.81,6.64,6.83,12.6,11.95,17.73,5.12,5.12,11.08,9.14,17.73,11.95,6.88,2.9,14.19,4.39,21.71,4.39s14.83-1.48,21.72-4.39c6.64-2.81,12.6-6.83,17.73-11.95,5.12-5.12,9.14-11.09,11.96-17.73,2.91-6.88,4.38-14.19,4.38-21.72s-1.47-14.83-4.38-21.71Zm-23.1-19.87c.32-2.32,2.29-4.11,4.69-4.11,2.63,0,4.76,2.13,4.76,4.76,0,2.06-1.32,3.8-3.15,4.46-.5.18-1.04.3-1.61.3-2.63,0-4.76-2.13-4.76-4.76,0-.22.04-.43.07-.65Zm-28.39,91.94c-27.8,0-50.35-22.54-50.35-50.36S27.89,5.42,55.69,5.42c8.79,0,17.05,2.26,24.25,6.22-.36,1-.57,2.07-.57,3.2,0,5.18,4.22,9.4,9.41,9.4,1.82,0,3.52-.53,4.96-1.43,7.66,8.83,12.31,20.36,12.31,32.97,0,27.81-22.54,50.36-50.36,50.36Z"/>
    </g>
  </g>
</svg>